<svg width="25" height="25" viewBox="0 0 25 25" fill="none" xmlns="http://www.w3.org/2000/svg">
<g clip-path="url(#clip0_101_131)">
<path d="M24.1333 12.4629C24.1333 5.83552 18.7607 0.462891 12.1333 0.462891C5.50593 0.462891 0.133301 5.83542 0.133301 12.4629C0.133301 18.4524 4.52155 23.4169 10.2583 24.3171V15.9316H7.21143V12.4629H10.2583V9.81914C10.2583 6.81164 12.0499 5.15039 14.7908 5.15039C16.1038 5.15039 17.4771 5.38477 17.4771 5.38477V8.33789H15.9639C14.4731 8.33789 14.0083 9.26292 14.0083 10.212V12.4629H17.3364L16.8044 15.9316H14.0083V24.3171C19.7451 23.4169 24.1333 18.4525 24.1333 12.4629Z" fill="#1877F2"/>
<path d="M16.8056 15.9316L17.3376 12.4629H14.0095V10.212C14.0095 9.26283 14.4744 8.33789 15.9651 8.33789H17.4783V5.38477C17.4783 5.38477 16.105 5.15039 14.7921 5.15039C12.0511 5.15039 10.2595 6.81164 10.2595 9.81914V12.4629H7.21265V15.9316H10.2595V24.3171C10.8798 24.4143 11.5067 24.4631 12.1345 24.4629C12.7624 24.4631 13.3893 24.4143 14.0095 24.3171V15.9316H16.8056Z" fill="white"/>
</g>
<defs>
<clipPath id="clip0_101_131">
<rect width="24" height="24" fill="white" transform="translate(0.133301 0.462891)"/>
</clipPath>
</defs>
</svg>
