<svg width="467" height="405" viewBox="0 0 467 405" fill="none" xmlns="http://www.w3.org/2000/svg">
<path opacity="0.37" d="M91.8625 317.169C92.6526 319.124 93.5259 321.078 94.4823 322.95C108.704 350.853 137.564 368.444 168.337 371.604C192.956 374.099 216.909 366.073 237.493 352.974C258.036 339.916 274.504 321.536 297.334 311.971C329.521 298.539 365.409 287.935 390.651 259.491C419.345 227.179 430.406 178.192 416.891 136.857C403.75 96.5191 360.128 83.4614 326.236 65.7046C265.314 33.7257 180.938 12.4757 117.52 50.027C41.5446 94.9805 55.3508 197.03 79.4285 267.849C84.9178 283.984 85.5831 301.367 91.8625 317.169Z" fill="#CCE9FF"/>
<path d="M130.619 125.961L130.495 125.171H129.705C114.318 125.171 109.328 120.222 109.286 120.181L108.621 119.432L107.956 120.181C107.914 120.222 102.965 125.171 87.5374 125.171H86.7472L86.6225 125.961C86.5809 126.211 83.3373 150.995 108.205 163.72L108.621 163.928L109.037 163.72C133.988 150.995 130.619 126.211 130.619 125.961ZM126.877 141.306C123.8 150.205 117.645 157.108 108.579 161.849C99.5139 157.108 93.3593 150.205 90.282 141.306C88.0364 134.777 88.1611 129.08 88.3275 127.042C101.136 126.876 106.833 123.466 108.579 122.052C110.326 123.425 116.023 126.876 128.831 127.042C128.998 129.122 129.122 134.777 126.877 141.306ZM155.03 94.1071L154.157 91.8199C153.366 91.7367 152.618 91.5288 151.869 91.2793L150.081 92.9427L144.925 89.2416L145.923 86.996C145.424 86.3723 145.008 85.7069 144.675 85L142.222 84.9168L141.182 78.6375L143.469 77.7642C143.552 76.974 143.76 76.2255 144.01 75.477L142.346 73.6888L146.048 68.4907L148.293 69.4887C148.917 68.9897 149.582 68.5739 150.289 68.2412L150.372 65.7877L156.652 64.748L157.525 67.0352C158.315 67.1184 159.064 67.3263 159.812 67.5758L161.6 65.9124L166.757 69.6135L165.759 71.8591C166.258 72.4829 166.674 73.1482 167.006 73.8552L169.46 73.9383L170.5 80.2177L168.212 81.091C168.088 81.8811 167.921 82.6296 167.672 83.3781L169.335 85.1663L165.634 90.3644L163.388 89.3664C162.765 89.8654 162.099 90.2813 161.392 90.6139L161.309 93.0675L155.03 94.1071ZM151.454 89.2832L151.953 89.4911C152.867 89.8654 153.865 90.0733 154.864 90.1565L155.404 90.1981L156.153 92.1526L159.604 91.5704L159.687 89.4911L160.186 89.2832C161.101 88.8674 161.933 88.3268 162.723 87.703L163.139 87.3703L165.052 88.2436L167.09 85.4158L165.634 83.8772L165.842 83.3781C166.216 82.4633 166.424 81.4652 166.507 80.4672L166.549 79.9266L168.503 79.1781L167.921 75.7265L165.842 75.6433L165.634 75.1443C165.218 74.2294 164.678 73.3977 164.054 72.6076L163.721 72.1918L164.594 70.2789L161.767 68.2412L160.228 69.6551L159.729 69.4472C158.814 69.0729 157.816 68.865 156.818 68.7818L156.277 68.7402L155.529 66.7857L152.077 67.3679L151.994 69.4472L151.495 69.6551C150.58 70.0709 149.749 70.6115 148.958 71.2353L148.543 71.568L146.63 70.6947L144.592 73.5225L146.048 75.0611L145.84 75.5602C145.465 76.475 145.257 77.4731 145.174 78.4711L145.133 79.0117L143.178 79.7602L143.76 83.2118L145.84 83.295L146.048 83.794C146.463 84.7089 147.004 85.5406 147.628 86.3307L147.96 86.7465L147.087 88.6594L149.915 90.6971L151.454 89.2832ZM155.778 86.3723C154.365 86.3723 152.951 85.9148 151.786 85.0831C148.667 82.8791 147.96 78.5543 150.164 75.4354C152.368 72.3165 156.693 71.6096 159.812 73.8136C161.309 74.8948 162.307 76.475 162.64 78.3048C162.931 80.1345 162.515 81.9643 161.476 83.4613C160.394 84.9584 158.814 85.9564 156.984 86.2891C156.527 86.3307 156.153 86.3723 155.778 86.3723ZM155.778 74.271C154.157 74.271 152.576 75.0196 151.578 76.4334C150.788 77.5562 150.456 78.9285 150.705 80.3009C150.955 81.6732 151.661 82.8375 152.784 83.6277C153.907 84.4178 155.279 84.7504 156.652 84.5009C158.024 84.2514 159.188 83.5445 159.979 82.4217C160.769 81.2989 161.101 79.9266 160.852 78.5543C160.602 77.182 159.895 76.0176 158.773 75.2275C157.858 74.6037 156.818 74.271 155.778 74.271ZM354.389 161.891L352.434 156.776C350.355 156.526 348.276 156.069 346.321 155.362L342.329 159.104L331.517 151.411L333.762 146.421C332.473 144.799 331.35 143.011 330.436 141.098L324.988 140.932L322.784 127.833L327.899 125.878C328.148 123.799 328.606 121.72 329.313 119.765L325.57 115.773L333.263 104.961L338.254 107.206C339.875 105.917 341.664 104.794 343.576 103.88L343.743 98.4319L356.842 96.2279L358.797 101.343C360.876 101.592 362.955 102.05 364.91 102.757L368.902 99.0141L379.714 106.707L377.468 111.698C378.757 113.319 379.88 115.108 380.795 117.02L386.243 117.187L388.447 130.286L383.332 132.241C383.082 134.32 382.625 136.399 381.918 138.354L385.661 142.346L377.967 153.158L372.977 150.912C371.355 152.201 369.567 153.324 367.654 154.239L367.488 159.687L354.389 161.891ZM345.739 152.7L346.404 152.95C348.608 153.782 350.937 154.322 353.307 154.53L354.056 154.613L355.844 159.271L365.159 157.691L365.325 152.7L365.991 152.409C368.153 151.453 370.191 150.164 372.021 148.625L372.561 148.168L377.136 150.205L382.625 142.512L379.215 138.853L379.464 138.187C380.296 135.983 380.837 133.654 381.045 131.284L381.086 130.536L385.744 128.747L384.163 119.432L379.173 119.266L378.882 118.601C377.926 116.438 376.637 114.401 375.098 112.571L374.64 112.03L376.678 107.456L368.985 101.967L365.325 105.377L364.66 105.127C362.456 104.295 360.127 103.755 357.757 103.547L357.008 103.505L355.22 98.8478L345.905 100.428L345.739 105.418L345.073 105.709C342.911 106.666 340.873 107.955 339.044 109.494L338.503 109.951L333.929 107.913L328.523 115.607L331.933 119.266L331.683 119.931C330.851 122.135 330.311 124.464 330.103 126.835L330.061 127.583L325.404 129.371L326.984 138.686L331.974 138.853L332.265 139.518C333.222 141.68 334.511 143.718 336.05 145.548L336.507 146.088L334.469 150.663L342.163 156.152L345.739 152.7ZM355.553 144.134C352.517 144.134 349.482 143.219 346.82 141.348C340.042 136.524 338.461 127.084 343.285 120.306C348.109 113.527 357.549 111.947 364.327 116.771C371.106 121.595 372.686 131.035 367.862 137.813C364.91 141.93 360.252 144.134 355.553 144.134ZM355.595 116.313C351.602 116.313 347.652 118.185 345.198 121.678C343.202 124.464 342.454 127.833 342.994 131.201C343.576 134.569 345.406 137.48 348.192 139.476C353.931 143.552 361.915 142.221 365.991 136.482C367.945 133.696 368.735 130.328 368.195 126.959C367.613 123.591 365.783 120.68 362.997 118.684C360.709 117.062 358.131 116.313 355.595 116.313ZM151.911 255.457C149.915 249.843 147.628 243.522 150.164 237.035C153.574 228.302 146.339 223.811 139.976 219.777C134.487 216.367 129.33 213.123 131.077 207.759C132.99 201.937 132.865 197.446 130.703 194.493C128.873 191.998 125.629 190.668 121.304 190.709C117.853 190.751 114.776 186.509 111.49 182.059C107.623 176.82 103.672 171.414 98.6821 172.62C97.8089 172.828 97.1019 173.327 96.6861 174.117C94.9395 177.402 97.6841 185.22 100.637 193.537C103.797 202.519 107.415 212.666 105.045 216.991C102.466 221.732 107.124 226.056 112.073 230.672C117.312 235.538 123.259 241.069 121.679 248.013C120.182 254.501 119.849 256.913 120.764 258.326C121.471 259.449 122.926 259.699 125.13 260.115C126.627 260.406 128.54 260.738 130.869 261.487C140.891 264.606 143.802 271.093 143.843 271.176L143.968 271.467L144.259 271.426C149.083 270.677 151.911 269.305 153.242 267.101C153.325 266.976 153.366 266.851 153.45 266.727C154.864 263.774 153.491 259.907 151.911 255.457Z" fill="#5E4DB6"/>
<path d="M126.295 243.065C127.959 245.644 129.165 247.889 129.04 251.05C128.957 254.002 128.499 256.913 128.25 259.824C128.208 260.448 128.167 261.03 128.125 261.612C127.293 260.905 126.503 260.198 125.671 259.491C125.297 259.45 124.923 259.45 124.507 259.45C125.671 260.406 126.877 261.446 128.042 262.485C127.917 264.523 127.875 266.561 127.875 268.598C127.875 269.804 127.834 271.094 127.917 272.3C126.836 271.634 125.713 270.969 124.673 270.303C121.43 268.307 118.394 266.436 116.065 265.438C114.277 264.689 112.281 264.024 110.368 263.4C105.378 261.779 100.263 260.115 98.558 256.58C97.6847 254.751 97.7679 252.547 98.8075 249.885C101.427 243.024 98.9739 241.859 94.8569 239.863C91.8628 238.408 87.7875 236.453 83.7121 231.505C81.924 229.342 80.3438 227.471 78.9299 225.849C74.7298 220.9 72.401 218.197 72.6921 216.617C72.7753 216.243 72.9832 215.91 73.3991 215.578C73.607 215.411 73.8565 215.245 74.1892 215.079C75.7694 214.205 77.3496 214.871 79.1378 215.619C81.5497 216.617 84.5023 217.906 88.6192 215.785C91.8628 214.122 95.4807 212.583 97.6431 213.831C99.1402 214.663 100.013 216.825 100.305 220.36C100.388 221.483 100.762 222.273 101.386 222.73C102.301 223.396 103.715 223.312 105.336 222.98C106.459 224.518 107.915 225.267 109.661 225.891C112.115 226.764 113.944 227.554 115.733 229.55C119.558 233.875 123.26 238.283 126.295 243.065Z" fill="#2A94F4"/>
<path d="M113.03 249.927C110.535 248.263 108.372 244.23 106.293 240.321C103.465 234.998 100.513 229.509 96.479 229.633C89.9917 229.8 84.2114 222.148 84.1283 222.106L83.5876 222.522C83.8372 222.855 89.6591 230.507 96.479 230.34C100.097 230.257 102.966 235.538 105.669 240.695C107.79 244.646 109.994 248.762 112.614 250.551C114.194 251.59 117.105 253.711 120.557 256.414V255.541C117.521 253.004 114.818 251.091 113.03 249.927Z" fill="white"/>
<path d="M332.183 301.451C332.183 301.451 335.926 292.136 329.106 278.912C322.244 265.688 316.714 267.726 333.223 257.537C349.732 247.349 333.306 215.328 347.362 211.253C361.417 207.178 373.602 155.321 384.289 161.933C394.977 168.545 380.713 193.954 388.365 201.605C395.975 209.257 397.014 218.946 381.253 226.806C365.493 234.665 392.44 264.69 371.065 273.839C349.69 282.987 355.845 318.875 332.183 301.451Z" fill="#5E4DB6"/>
<path d="M338.712 311.305C338.671 311.18 336.384 299.287 343.661 283.9C351.063 268.223 354.598 251.09 353.142 238.032C352.352 230.963 356.885 228.218 361.251 225.556C365.576 222.937 370.026 220.192 369.776 213.247C369.568 206.968 372.23 192.247 372.313 191.623L373.27 191.789C373.228 191.956 370.525 207.051 370.733 213.206C370.982 220.733 366.283 223.602 361.75 226.347C357.426 228.966 353.392 231.462 354.099 237.907C355.596 251.09 352.02 268.431 344.534 284.275C337.423 299.37 339.627 310.972 339.669 311.097L338.712 311.305Z" fill="white"/>
<path d="M395.474 234.041C401.42 231.213 407.741 232.502 404.456 238.449C401.171 244.396 396.264 244.853 397.179 249.552C398.093 254.251 400.505 259.366 392.771 262.36C385.036 265.313 381.418 264.814 376.719 273.505C371.978 282.196 370.356 288.642 362.247 286.563C354.138 284.442 360.875 273.755 365.075 269.264C365.075 269.264 370.772 264.44 370.689 255.748C370.606 247.057 367.029 241.235 378.257 241.817C389.485 242.316 391.44 235.954 395.474 234.041Z" fill="#0E538C"/>
<path d="M360.959 292.635C361.292 291.512 369.11 264.606 375.514 261.696C382.043 258.701 385.578 250.883 387.116 246.517C389.112 240.82 397.637 239.697 397.97 239.655L398.095 240.612C398.012 240.612 389.819 241.693 388.031 246.808C386.118 252.339 382.459 259.575 375.93 262.569C369.942 265.313 361.999 292.635 361.916 292.926L360.959 292.635ZM154.989 270.969C142.18 267.767 142.014 260.864 141.848 254.21C141.723 248.763 141.598 243.606 134.654 240.446C125.463 236.245 125.255 228.469 125.047 221.608C124.881 216.493 124.756 211.669 120.93 209.049C111.74 202.77 103.964 187.549 103.881 187.383L104.588 187.009C104.671 187.175 112.322 202.187 121.388 208.383C125.546 211.211 125.713 216.243 125.838 221.566C126.045 228.511 126.253 235.746 134.986 239.697C142.347 243.065 142.513 248.721 142.638 254.169C142.804 260.822 142.971 267.143 155.197 270.179L154.989 270.969Z" fill="white"/>
<path d="M137.73 264.813H348.109V112.945C348.109 110.782 346.362 108.994 344.158 108.994H141.681C139.518 108.994 137.73 110.741 137.73 112.945V264.813Z" fill="#F7F7F7"/>
<path d="M340.279 236.5L145.162 236.5L145.162 116.61L340.279 116.61V236.5Z" fill="#0B4870" stroke="white" stroke-width="0.207925" stroke-miterlimit="10"/>
<path d="M348.109 242.315H137.813L114.775 328.355H371.105L348.109 242.315Z" fill="#F2F2F2"/>
<path d="M145.755 257.412H158.688C159.229 257.412 159.645 257.828 159.52 258.285L158.272 263.899C158.189 264.232 157.857 264.482 157.441 264.482H144.3C143.759 264.482 143.343 264.066 143.468 263.567L144.924 257.953C145.007 257.662 145.34 257.412 145.755 257.412ZM164.593 257.412H174.366L173.077 264.523H163.096L164.593 257.412ZM179.231 257.412H189.004L188.006 264.523H178.025L179.231 257.412ZM193.911 257.412H203.683L202.935 264.523H192.954L193.911 257.412ZM208.549 257.412H218.321L217.864 264.523H207.883L208.549 257.412ZM223.187 257.412H232.959L232.793 264.523H222.812L223.187 257.412ZM340.457 257.412H325.777L327.357 264.523H342.286L340.457 257.412ZM320.912 257.412H311.139L312.428 264.523H322.409L320.912 257.412ZM306.274 257.412H296.501L297.499 264.523H307.48L306.274 257.412ZM291.594 257.412H281.822L282.57 264.523H292.551L291.594 257.412ZM276.956 257.412H267.184L267.641 264.523H277.622L276.956 257.412ZM262.318 257.412H252.546L252.712 264.523H262.693L262.318 257.412ZM237.866 257.412H247.639L247.763 264.523H237.866V257.412ZM141.472 269.804H161.849L160.684 277.123H139.892L141.472 269.804ZM343.617 269.804H318.416L319.83 277.123H345.572L343.617 269.804ZM313.343 269.804H303.28L304.402 277.123H314.715L313.343 269.804ZM298.206 269.804H288.143L288.974 277.123H299.287L298.206 269.804ZM283.069 269.804H273.006L273.588 277.123H283.859L283.069 269.804ZM267.932 269.804H257.869L258.16 277.123H268.431L267.932 269.804ZM138.395 282.821H159.271L157.732 290.098H136.482L138.395 282.821ZM164.469 282.821H174.907L173.701 290.098H163.055L164.469 282.821ZM180.146 282.821H258.368L258.659 290.098H178.982L180.146 282.821ZM263.607 282.821H274.045L274.627 290.098H263.982L263.607 282.821ZM279.243 282.821H289.681L290.555 290.098H279.909L279.243 282.821ZM294.921 282.821H305.359L306.482 290.098H295.877L294.921 282.821ZM310.557 282.821H320.995L322.409 290.098H311.804L310.557 282.821ZM326.193 282.821H347.069L348.981 290.098H327.732L326.193 282.821ZM252.837 269.804H242.815V277.123H253.003L252.837 269.804ZM237.7 269.804H227.595L227.304 277.123H237.617L237.7 269.804ZM222.563 269.804H212.458L211.876 277.123H222.189L222.563 269.804ZM207.426 269.804H197.321L196.448 277.123H206.761L207.426 269.804ZM192.289 269.804H182.184L181.02 277.123H191.333L192.289 269.804ZM177.152 269.804H167.047L165.633 277.123H175.905L177.152 269.804ZM146.213 252.963L147.876 246.642H152.617L151.078 252.963H146.213ZM157.358 246.642H166.839L165.55 252.963H155.861L157.358 246.642ZM171.621 246.642H181.103L180.021 252.963H170.374L171.621 246.642ZM185.843 246.642H195.325L194.493 252.963H184.845L185.843 246.642ZM200.065 246.642H209.547L208.965 252.963H199.317L200.065 246.642ZM214.288 246.642H223.769L223.436 252.963H213.789L214.288 246.642ZM228.51 246.642H237.991L237.908 252.963H228.26L228.51 246.642ZM242.732 246.642H252.213L252.379 252.963H242.732V246.642ZM256.954 246.642H266.435L266.851 252.963H257.203L256.954 246.642ZM271.176 246.642H280.699L281.323 252.963H271.675L271.176 246.642ZM285.44 246.642H294.921L295.836 252.963H286.188L285.44 246.642ZM299.662 246.642H309.143L310.307 252.963H300.66L299.662 246.642ZM313.884 246.642H323.365L324.779 252.963H315.131L313.884 246.642ZM328.106 246.642H337.587L339.251 252.963H329.603L328.106 246.642Z" fill="#0B4870" stroke="white" stroke-width="0.207925" stroke-miterlimit="10"/>
<path d="M364.41 335.051H121.47C117.769 335.051 114.775 332.057 114.775 328.356H371.105C371.105 332.057 368.111 335.051 364.41 335.051ZM272.757 300.536C272.507 299.039 271.176 297.916 269.679 297.916H216.243C214.704 297.916 213.415 299.039 213.165 300.536L209.839 320.705C209.506 322.618 211.003 324.364 212.916 324.364H272.965C274.919 324.364 276.375 322.618 276.042 320.705L272.757 300.536Z" fill="#D3D3D3"/>
<path d="M158.314 126.793H180.063V129.039H158.314V126.793ZM186.176 143.552H201.854V145.797H186.176V143.552ZM204.307 143.552H214.704V145.797H204.307V143.552ZM158.564 185.719H168.96V187.965H158.564V185.719ZM216.783 143.552H241.942V145.797H216.783V143.552ZM158.564 177.277H174.74V179.523H158.564V177.277ZM181.103 194.078H190.958V196.323H181.103V194.078ZM158.564 194.078H178.109V196.323H158.564V194.078ZM158.564 202.478H169.334V204.723H158.564V202.478ZM184.305 126.793H199.733V129.039H184.305V126.793ZM184.305 151.952H199.733V154.198H184.305V151.952ZM176.57 160.311H183.182V162.556H176.57V160.311ZM170 168.835H184.804V171.081H170V168.835ZM187.049 168.835H207.509V171.081H187.049V168.835ZM158.564 160.394H173.992V162.639H158.564V160.394ZM158.564 168.835H167.712V171.081H158.564V168.835ZM186.301 160.394H194.951V162.639H186.301V160.394ZM158.855 210.836H167.504V213.082H158.855V210.836ZM158.522 143.552H173.95V145.797H158.522V143.552ZM172.162 185.719H187.59V187.965H172.162V185.719ZM172.37 202.478H187.798V204.723H172.37V202.478ZM199.774 202.478H215.203V204.723H199.774V202.478ZM158.522 151.952H180.521V154.198H158.522V151.952ZM261.611 126.793H277.039V129.039H261.611V126.793ZM206.636 210.836H222.064V213.082H206.636V210.836ZM281.822 126.793H292.135V129.039H281.822V126.793ZM316.795 135.193H327.108V137.439H316.795V135.193ZM203.891 126.793H223.561V129.039H203.891V126.793ZM280.491 135.193H300.161V137.439H280.491V135.193ZM256.372 143.552H276.041V145.797H256.372V143.552ZM230.797 151.952H250.467V154.198H230.797V151.952ZM278.495 143.552H292.468V145.797H278.495V143.552ZM238.074 126.793H257.744V129.039H238.074V126.793ZM215.66 151.952H227.179V154.198H215.66V151.952ZM206.636 185.844H218.155V188.089H206.636V185.844ZM227.179 126.793H234.373V129.039H227.179V126.793ZM203.891 151.952H211.086V154.198H203.891V151.952ZM304.901 135.193H312.096V137.439H304.901V135.193ZM158.314 135.193H169.584V137.439H158.314V135.193ZM188.38 177.319H197.279V179.564H188.38V177.319ZM172.37 135.193H175.988V137.439H172.37V135.193ZM246.974 135.193H277.039V137.439H246.974V135.193ZM218.155 202.478H248.221V204.723H218.155V202.478ZM178.649 135.193H182.35V137.439H178.649V135.193ZM234.373 135.193H244.187V137.439H234.373V135.193ZM244.229 143.552H254.043V145.797H244.229V143.552ZM193.661 210.836H203.476V213.082H193.661V210.836ZM210.878 135.193H231.795V137.439H210.878V135.193ZM191.374 185.844H203.6V188.089H191.374V185.844ZM190.626 202.478H196.739V204.723H190.626V202.478ZM200.689 135.193H207.884V137.439H200.689V135.193ZM176.487 143.552H183.681V145.797H176.487V143.552ZM177.901 177.319H185.095V179.564H177.901V177.319ZM185.428 135.193H197.986V137.439H185.428V135.193Z" fill="#F7F7F7"/>
<path d="M290.722 152.035C290.722 152.035 294.381 158.231 295.92 159.229C297.999 160.601 296.71 161.974 295.712 162.015C294.714 162.015 289.64 162.39 288.518 161.1C287.395 159.811 286.854 156.027 285.815 155.029C284.775 154.031 283.694 150.08 286.314 149.124C288.601 148.251 290.722 152.035 290.722 152.035Z" fill="#708ECA"/>
<path d="M289.098 149.332C289.098 149.332 293.298 156.61 294.005 157.649C294.712 158.731 292.633 158.731 291.344 158.232C290.055 157.733 286.811 152.534 286.353 151.578C285.813 150.455 286.27 149.166 286.27 149.166L289.098 149.332Z" fill="#FFE3CA"/>
<path d="M284.86 153.201L285.858 160.644L286.357 160.686L286.191 155.322L284.86 153.201ZM254.42 152.036C254.42 152.036 258.079 158.232 259.618 159.231C261.697 160.603 260.408 161.975 259.41 162.017C258.412 162.017 253.339 162.391 252.216 161.102C251.093 159.813 250.553 156.028 249.513 155.03C248.473 154.032 247.351 149.957 250.012 149.125C252.341 148.377 254.42 152.036 254.42 152.036Z" fill="#708ECA"/>
<path d="M253.046 149.332C253.046 149.332 256.997 156.568 257.745 157.649C258.452 158.731 256.373 158.731 255.084 158.232C253.795 157.733 250.551 152.534 250.094 151.578C249.553 150.455 250.011 149.166 250.011 149.166L253.046 149.332Z" fill="#FFE3CA"/>
<path d="M248.595 153.199L249.552 160.643L250.093 160.685L249.926 155.32L248.595 153.199Z" fill="#708ECA"/>
<path d="M238.199 95.604L271.301 110.699C271.301 110.699 275.002 111.905 275.418 116.022C276.707 128.83 286.271 149.124 286.271 149.124C289.349 150.621 289.099 149.332 289.099 149.332C287.145 143.094 284.816 117.478 283.943 107.206C283.776 105.044 283.651 103.547 283.61 103.048C283.61 102.715 283.236 102.299 282.612 101.8C278.079 98.0991 259.366 90.489 259.366 90.489C245.435 90.1147 238.199 95.604 238.199 95.604Z" fill="#FFE3CA"/>
<path d="M231.962 102.092C233.002 111.033 245.769 110.034 245.769 110.034H261.238C261.238 110.034 257.163 119.1 255.583 126.71C253.919 134.819 249.969 149.124 249.969 149.124C249.969 149.124 250.218 149.623 253.046 149.332C253.046 149.332 265.189 125.13 269.846 119.017C270.844 117.728 273.714 110.575 274.213 106.333C274.379 104.919 274.296 103.797 273.755 103.339C273.215 102.882 271.967 102.05 270.345 101.011C265.48 97.9332 257.08 93.2341 252.381 92.1945C246.101 90.7806 236.163 88.1191 236.163 88.1191C236.163 88.1191 230.923 93.1509 231.962 102.092Z" fill="#FFE3CA"/>
<path d="M242.482 33.1437C242.482 33.1437 240.154 28.7357 241.276 24.0781C242.399 19.379 246.766 14.7215 253.128 16.8839C259.491 19.0463 264.647 23.9534 260.821 29.6921C256.996 35.3893 264.273 38.0091 262.402 40.7121C260.53 43.4152 261.237 46.2845 262.027 46.9083C262.817 47.5321 265.354 49.7777 265.063 52.4807C264.772 55.1422 252.712 44.7043 252.712 44.7043C252.712 44.7043 246.183 31.4387 242.482 33.1437Z" fill="#0E538C"/>
<path d="M261.902 89.3664C261.902 89.3664 260.946 94.024 236.203 88.1605C236.203 88.1605 244.478 85.4159 261.902 89.3664Z" fill="#EB4747"/>
<path d="M235.91 89.4494C235.536 90.198 235.162 90.9049 234.746 91.6534C243.77 91.9029 252.836 92.194 261.86 92.4436C260.446 87.6613 260.903 81.174 261.153 76.267C261.444 70.2371 264.77 66.0786 264.438 60.0072C266.226 60.2983 266.517 60.3399 268.305 60.631C265.561 52.813 264.646 48.9456 256.121 45.9515C253.335 44.9534 251.546 44.7871 248.552 45.0366C238.697 45.8683 235.744 45.9515 230.879 54.8923C238.447 56.0982 237.2 58.8013 239.487 66.3697C240.61 70.0292 241.774 74.1461 241.192 78.0135C240.61 81.7978 235.91 85.9979 235.91 89.4494Z" fill="white"/>
<path d="M251.633 47.8238C247.599 47.0752 248.472 44.8296 248.472 44.8296C248.472 44.8296 248.639 43.5821 248.722 41.9603C248.722 41.5444 248.763 41.1286 248.763 40.6711C248.763 40.0058 248.722 39.3404 248.639 38.6751C248.306 35.972 255.958 37.5939 255.958 37.5939C255.958 37.5939 255.5 43.0831 256.581 44.7049C257.621 46.3683 255.667 48.6139 251.633 47.8238Z" fill="#FFE3CA"/>
<path d="M243.939 44.829C243.939 44.829 252.09 54.2272 255.084 56.3896C255.084 56.3896 258.535 53.2708 256.414 45.0369C256.414 45.0369 252.505 43.0408 243.939 44.829ZM244.188 22.2067C244.188 22.2067 239.947 30.3574 244.147 38.0506C248.347 45.7439 256.581 34.6822 257.08 33.3931C257.62 32.104 260.448 24.7434 254.834 22.5394C249.22 20.2938 245.394 20.0027 244.188 22.2067Z" fill="#FFE3CA"/>
<path d="M252.34 38.8828C252.34 38.8828 251.592 40.5046 248.722 41.9601C248.722 41.5443 248.764 41.1284 248.764 40.671C248.764 40.671 250.718 40.463 252.34 38.8828Z" fill="#FCD2B1"/>
<path d="M209.63 82.1308C209.63 82.1308 207.634 83.0041 206.678 82.6298C205.721 82.2139 204.266 82.1308 203.809 82.1308C203.185 82.1308 201.23 81.4238 201.272 82.2139C201.313 82.9625 204.432 83.5031 205.056 83.7526C205.68 84.0021 203.143 85.3744 202.894 85.9982C202.644 86.622 205.555 90.6973 207.177 89.5329C208.799 88.3685 209.672 86.0398 210.005 85.8734C210.337 85.7071 211.211 85.0833 211.211 85.0833L209.63 82.1308Z" fill="#FFE3CA"/>
<path d="M203.228 85.624C203.228 85.624 198.528 89.533 198.445 90.0736C198.362 90.6142 198.612 90.8637 199.069 90.4895C199.527 90.1568 203.727 86.83 203.727 86.83C203.727 86.83 199.027 92.4024 198.861 92.8182C198.778 93.0677 199.235 93.5668 199.485 93.4004C199.734 93.2341 204.766 87.9944 204.766 87.9944C204.766 87.9944 200.358 93.1925 200.358 93.6084C200.317 93.941 200.857 94.3153 201.231 93.941C201.606 93.5668 205.972 88.9924 205.972 88.9924C205.972 88.9924 203.02 92.9846 203.228 93.3588C203.352 93.5668 203.727 94.0242 204.434 92.9846C205.14 91.945 207.137 89.6162 207.137 89.6162L203.228 85.624Z" fill="#FFE3CA"/>
<path d="M259.616 109.993H245.769C245.769 109.993 233.002 111.032 231.962 102.05C230.923 93.1093 236.163 88.1191 236.163 88.1191C236.163 88.1191 242.899 89.9073 248.804 91.3212C251.757 90.6974 255.292 90.2816 259.45 90.4063C259.45 90.4063 284.401 98.6402 283.653 103.007C283.653 103.048 273.215 97.4758 259.616 109.993Z" fill="#0E538C"/>
<path d="M250.594 94.5242L277.042 94.1084L263.693 100.887L250.594 94.5242Z" fill="#F2F2F2"/>
<path d="M258.826 91.1133C258.826 91.1133 252.879 93.4004 245.602 91.3212L245.269 88.6182L260.282 89.4499L258.826 91.1133Z" fill="white"/>
<path d="M263.693 100.885L250.594 95.8116V94.5225L264.733 99.5958L263.693 100.885Z" fill="#D3D3D3"/>
<path d="M258.699 92.4025C258.616 93.359 259.614 94.0659 260.529 93.6917L262.068 93.0263C262.525 92.8184 262.816 92.361 262.733 91.8619C262.109 87.8698 260.737 72.317 262.733 69.6139C263.482 68.6159 263.939 67.7426 264.189 66.9941C265.519 70.4041 267.141 74.8121 267.806 77.1824L280.282 93.8164L284.482 94.8976C279.242 82.2974 275.042 75.6438 275.042 75.6438C274.211 73.4398 271.882 66.7862 269.803 60.8811C268.472 57.1384 267.307 53.6869 266.642 51.8571C266.309 50.9007 265.686 50.1106 264.812 49.6115C262.858 48.4472 259.656 46.6174 256.745 45.2035H256.703C256.62 45.1619 256.537 45.1204 256.412 45.0788C261.985 53.4374 259.822 77.1824 258.699 92.4025C258.699 92.361 258.699 92.361 258.699 92.4025ZM238.073 45.7441C236.285 46.0352 231.877 50.3185 229.548 54.6433C226.887 59.5919 224.142 65.2059 222.105 67.0357C218.362 70.4456 207.841 82.4637 207.342 82.1726C207.134 82.0479 210.211 85.7489 210.627 85.9153C210.835 85.9985 227.885 71.1942 229.548 68.9486C231.087 66.8277 235.245 57.8454 236.493 58.0533C236.576 58.2612 238.115 61.5464 239.529 66.3287C239.57 66.4119 239.57 66.4951 239.612 66.5782C240.61 69.905 240.527 73.5645 239.986 77.6399C239.57 80.7171 237.283 85.7489 235.911 88.2025C235.744 88.4936 235.786 89.0757 235.952 89.4916C236.077 89.7411 236.202 89.949 236.41 90.0322L241.442 91.9035L242.606 92.3194C243.438 92.6521 244.353 92.4857 245.018 91.9867C245.559 91.6124 245.974 90.9887 246.058 90.2401C247.18 81.6736 248.594 72.8992 249.717 69.6139C254.666 55.1423 247.804 44.2471 247.804 44.2471C247.804 44.2471 239.653 45.1619 238.073 45.7441Z" fill="#5E4DB6"/>
<path d="M263.693 100.886L271.553 79.4277L296.878 79.8436L289.393 99.6381L263.693 100.886Z" fill="#5E4DB6"/>
<path d="M279.661 88.909C278.871 90.4477 279.121 92.1527 280.202 92.6517C281.283 93.1923 282.739 92.3606 283.529 90.8219C284.319 89.2833 284.069 87.5783 282.988 87.0793C281.907 86.5387 280.41 87.3704 279.661 88.909Z" fill="#F2F0F0"/>
<path d="M264.275 48.3634C262.404 45.5356 261.073 43.29 260.907 39.2563C260.782 36.5948 260.2 32.9769 258.37 31.1888C260.283 26.1986 258.037 24.7015 257.123 23.0797C256 21.042 247.683 16.135 244.398 21.2915C241.112 26.4065 242.277 31.771 242.277 31.771C242.609 28.9432 245.52 25.1174 245.52 25.1174C245.978 28.0699 252.091 32.8938 254.752 34.8483C254.711 34.8898 254.669 34.973 254.669 35.0146C253.172 37.177 255.043 39.3394 255.376 41.6266C255.709 43.9138 249.097 50.0684 256.457 53.1457C263.818 56.2646 266.146 51.1496 264.275 48.3634ZM130.413 290.596C130.413 290.596 130.247 292.343 122.096 292.343C113.945 292.343 102.094 290.222 102.094 290.222L121.015 288.392C121.015 288.392 128.292 288.018 130.413 290.596Z" fill="#0E538C"/>
<path d="M109.66 291.219C105.045 291.219 103.09 293.59 101.26 294.338C99.4306 295.087 97.6008 296.21 97.6008 296.168C98.6404 294.13 100.096 294.089 100.844 293.423C101.593 292.758 101.385 293.091 99.7632 292.966C98.8484 292.883 97.185 294.588 96.0206 295.544C94.981 296.334 94.3572 296.418 94.3572 296.418C94.3572 296.418 95.5631 294.713 97.0602 293.34C98.8899 291.677 101.177 290.305 101.718 290.055C102.716 289.639 105.793 289.556 107.955 289.847C110.451 290.18 112.987 291.219 109.66 291.219Z" fill="#0E538C"/>
<path d="M102.01 290.139C102.01 290.139 98.4748 291.054 97.8511 291.553C97.4352 291.886 95.6055 293.84 95.6055 293.84C95.6055 293.84 96.9362 293.633 97.6847 292.884C98.4748 292.094 102.01 290.139 102.01 290.139ZM123.717 287.021C123.717 287.021 132.616 287.603 131.992 293.092C131.66 296.211 129.622 297.292 126.919 297.042C121.929 296.627 116.273 295.878 116.273 295.878L113.737 287.353L123.717 287.021Z" fill="#0E538C"/>
<path d="M125.585 287.769L134.318 259.616C134.318 259.616 135.607 255.499 137.728 256.248C140.764 257.37 139.267 260.739 139.017 262.735C138.477 266.81 138.851 268.598 136.023 278.412C134.277 284.484 132.78 291.47 131.282 295.462C130.243 298.207 128.455 294.256 125.752 293.175C120.678 291.137 125.585 287.769 125.585 287.769ZM126.251 244.313C127.956 249.22 133.237 251.756 138.102 249.968C142.926 248.18 145.505 242.732 143.8 237.825C142.095 232.918 136.813 230.382 131.948 232.17C127.124 233.958 124.546 239.406 126.251 244.313Z" fill="#0E538C"/>
<path d="M116.688 244.769C119.35 248.761 124.673 249.759 128.54 247.015L128 242.316C131.867 239.529 132.823 234.04 130.162 230.048L128.332 227.345C125.671 223.353 120.348 222.355 116.481 225.099L114.734 226.347C110.867 229.133 109.91 234.622 112.572 238.615L116.688 244.769Z" fill="#0E538C"/>
<path d="M113.196 231.671C113.653 232.336 114.152 232.96 114.735 233.584C118.56 237.742 123.675 239.323 126.919 237.618C128.416 239.655 130.121 241.277 131.66 242.525C133.448 243.98 138.022 244.562 138.022 244.562C140.684 247.473 130.703 264.482 129.996 264.398C128.541 264.274 126.669 254.875 128.042 251.465C128.666 249.927 129.664 248.097 129.372 247.265C128.333 244.396 126.877 244.895 126.877 244.895C126.877 244.895 124.964 247.141 123.467 247.057C121.929 246.933 119.267 244.521 119.143 244.479C118.685 244.105 118.269 243.647 117.895 243.107L113.903 237.119C112.863 235.455 112.614 233.459 113.196 231.671Z" fill="#FFE3CA"/>
<path d="M143.719 303.322C143.719 303.322 140.475 307.231 139.477 307.647C138.147 308.23 134.071 306.982 134.071 306.982C134.071 306.982 132.99 289.059 131.743 282.073C130.495 275.086 128.665 273.256 128.582 271.052C128.457 267.518 125.505 266.104 126.004 263.359C126.503 260.615 127.376 250.801 127.667 252.09C130.204 263.235 133.323 253.961 134.03 252.506C134.404 251.715 143.719 303.322 143.719 303.322Z" fill="#F2F0F0"/>
<path d="M128.956 248.762C128.956 248.762 125.005 253.087 125.296 254.792C125.546 256.497 123.591 261.82 125.546 269.222C127.75 277.664 128.914 283.403 129.33 288.933C129.746 294.464 127.875 299.538 128.623 306.316C129.205 311.639 130.411 311.93 130.411 311.93C130.411 311.93 132.782 312.512 134.445 310.433C136.109 308.395 133.613 290.264 132.782 285.773C131.95 281.24 129.289 270.678 128.582 267.559C127.708 263.733 127.875 259.824 127.916 258.701C128.124 254.751 128.623 252.297 129.039 250.8C129.081 250.592 129.289 248.263 128.956 248.762ZM135.859 253.836C138.021 260.073 144.758 263.275 150.913 260.988C157.067 258.701 160.311 251.798 158.149 245.56C155.986 239.322 149.249 236.12 143.095 238.408C136.94 240.653 133.697 247.598 135.859 253.836Z" fill="#0E538C"/>
<path d="M114.692 361.042L116.896 378.632L107.332 383.165L102.051 384.33L111.449 377.052L108.371 361.167L114.692 361.042Z" fill="#FCBAA2"/>
<path d="M117.519 381.294L115.44 381.835L114.026 380.545L106.375 384.371L99.5963 385.993C99.5963 385.993 99.5131 385.453 99.721 385.161C100.553 384.039 105.335 381.585 105.335 381.585C105.335 381.585 105.418 383.207 106.084 383.248C106.749 383.29 112.612 380.213 113.985 379.381C116.313 377.926 116.771 376.969 116.937 377.094C117.436 377.343 117.519 381.294 117.519 381.294Z" fill="#0E538C"/>
<path d="M91.6141 336.59L84.0041 351.561L73.5246 351.062L68.2849 349.523L79.8871 347.569L86.2081 334.761L91.6141 336.59Z" fill="#FCBAA2"/>
<path d="M83.3802 354.221L81.3009 353.722L80.6356 351.892L71.1958 351.768L65.5818 350.437C65.5818 350.437 66.2472 349.688 66.663 349.481C67.9106 348.94 72.3601 348.69 72.3601 348.69C72.3601 348.69 71.9027 349.98 72.4849 350.312C73.0671 350.687 79.5544 350.894 81.1346 350.77C83.8792 350.562 84.6693 349.98 84.7525 350.146C85.0436 350.728 83.3802 354.221 83.3802 354.221Z" fill="#0E538C"/>
<path d="M147.128 291.802L141.473 294.338L141.514 302.115L102.549 295.752C102.549 295.752 98.848 294.546 96.4776 300.659C93.1092 309.309 84.5427 336.215 84.5427 336.215L89.9488 342.078L106.957 311.679C106.957 311.679 141.805 328.605 153.283 324.945C157.691 323.531 161.059 315.464 160.435 307.313C159.936 300.909 158.689 295.045 158.689 295.045L147.128 291.802Z" fill="#708ECA"/>
<path d="M142.182 324.779L114.278 322.7L116.69 367.279L108.456 367.57L102.385 315.339C102.385 315.339 104.007 307.563 109.329 308.727C114.694 309.933 127.585 320.163 142.182 324.779Z" fill="#708ECA"/>
<path d="M160.977 335.965C160.977 335.965 146.339 319.539 142.555 310.266C138.022 299.163 138.396 285.232 137.564 280.616C136.026 272.132 134.154 255.665 133.822 253.627C133.448 251.589 134.737 249.302 134.737 249.302C134.737 249.302 133.78 243.148 136.525 243.813C140.475 244.769 144.384 246.932 145.757 247.597C148.335 248.762 153.616 279.784 153.907 281.281C154.989 286.687 158.939 291.594 161.767 296.626C168.421 308.561 170.126 322.658 170.126 322.658C170.126 322.658 169.294 332.971 160.977 335.965Z" fill="#2A94F4"/>
<path d="M145.881 293.009C145.881 293.009 145.756 295.005 136.441 294.548C127.126 294.049 113.486 290.93 113.486 290.93L135.069 289.932C135.069 289.932 143.344 289.973 145.881 293.009Z" fill="#FFE3CA"/>
<path d="M120.805 292.01C116.356 291.927 114.443 294.214 112.696 294.921C110.95 295.628 109.162 296.668 109.162 296.668C110.16 294.713 111.574 294.672 112.322 294.048C113.029 293.424 112.863 293.757 111.282 293.591C110.368 293.507 108.787 295.129 107.665 296.044C106.666 296.834 106.043 296.876 106.043 296.876C106.043 296.876 107.207 295.212 108.663 293.882C110.451 292.302 112.613 290.971 113.154 290.763C114.11 290.389 117.063 290.347 119.184 290.68C121.554 291.012 124.007 292.094 120.805 292.01Z" fill="#FFE3CA"/>
<path d="M113.361 290.805C113.361 290.805 109.951 291.636 109.369 292.094C108.953 292.427 107.207 294.298 107.207 294.298C107.207 294.298 108.454 294.09 109.203 293.383C109.951 292.718 113.361 290.805 113.361 290.805Z" fill="#FFE3CA"/>
<path d="M138.437 290.804L152.243 283.526C152.243 283.526 152.285 292.342 152.368 295.711C152.451 299.079 153.865 303.82 151.204 304.527C148.542 305.234 147.17 304.859 149.915 306.481C152.659 308.062 152.036 309.725 150.996 311.097C149.956 312.47 154.489 326.442 153.408 327.232C149.125 321.826 144.509 315.131 142.513 310.266C139.976 303.945 138.978 296.709 138.437 290.804Z" fill="#0E538C"/>
<path d="M142.887 287.27L142.347 259.158C142.347 259.158 142.388 250.384 142.555 247.805C142.721 245.144 147.254 248.263 147.254 248.263C147.254 248.263 153.616 256.871 153.741 277.622C153.824 291.511 153.076 298.747 146.671 298.165C140.725 297.624 133.946 296.709 133.946 296.709L130.994 289.016L142.887 287.27Z" fill="#2A94F4"/>
<path d="M141.473 302.117L93.9412 296.17L94.0659 295.172L141.598 301.119L141.473 302.117Z" fill="#D3D3D3"/>
<path d="M120.638 298.455C120.555 299.245 119.931 299.828 119.266 299.744L94.8971 296.709C94.2318 296.626 93.4001 296.002 92.8179 293.923L83.4197 269.595C83.5444 268.597 84.3345 268.098 84.9999 268.348L109.909 272.257C110.575 272.506 111.032 273.088 111.282 274.17L120.638 298.455Z" fill="#D3D3D3"/>
<path d="M117.561 299.121L117.81 299.163L141.597 302.157C140.682 302.531 139.227 302.656 137.605 302.448L117.686 299.953L117.436 299.912L97.517 297.416C95.8952 297.209 94.5229 296.71 93.6912 296.169L117.561 299.121Z" fill="#D3D3D3"/>
<path d="M142.887 287.27L142.346 259.158C142.346 259.158 142.762 256.788 143.594 254.667C143.802 257.744 145.216 279.909 145.382 282.82C145.59 285.981 148.168 286.313 148.709 287.353C149.291 288.351 148.792 288.559 146.879 288.185C145.008 287.769 145.673 288.101 146.089 289.099C146.505 290.139 145.465 289.848 141.806 288.517C139.144 287.561 134.029 288.517 131.451 289.099L142.887 287.27Z" fill="#0E538C"/>
<path d="M307.23 218.28C302.656 219.486 294.214 223.728 292.426 231.005C289.765 241.942 295.088 257.952 286.687 273.672C283.984 278.662 333.138 285.399 333.138 285.399L342.619 230.174C342.619 230.174 330.767 218.197 328.356 217.365C323.324 215.702 316.379 215.868 307.23 218.28Z" fill="#CCE9FF"/>
<path d="M342.662 230.215C344.367 234.623 348.692 260.863 343.868 267.06C343.327 267.766 346.363 268.889 345.822 272.133C345.739 272.674 344.824 275.293 344.824 275.293L340.915 276.333L332.39 266.477C332.39 266.477 335.842 261.113 340.375 240.778C341.705 234.79 342.288 229.217 342.662 230.215Z" fill="#2A94F4"/>
<path d="M310.393 261.569C310.393 261.569 314.51 272.423 324.449 275.334C326.154 275.833 327.235 277.746 326.404 278.37C325.322 279.16 323.908 279.326 321.413 279.326C316.215 279.326 309.146 277.663 304.28 272.756C297.045 265.52 294.757 262.193 295.506 258.575C296.171 254.874 310.393 261.569 310.393 261.569Z" fill="#FCD2B1"/>
<path d="M293.839 227.345C291.718 230.922 290.512 236.66 290.554 244.894C290.554 251.257 295.876 261.695 296.667 264.897C296.791 265.437 297.124 267.724 297.124 267.724L302.987 273.713L314.756 265.437L311.18 259.74L310.098 259.865C310.098 259.865 309.433 256.704 309.599 255.498C309.766 254.293 306.356 237.866 304.651 227.345C303.694 221.232 295.918 223.811 293.839 227.345Z" fill="#2A94F4"/>
<path d="M304.402 259.617L307.854 258.535L309.267 258.161C309.351 259.159 310.182 259.825 310.182 259.825L307.479 260.157L304.36 261.155L300.701 263.775L304.402 259.617Z" fill="#0E538C"/>
<path d="M323.701 275.293L329.689 273.588C329.689 273.588 331.394 275.958 331.062 276.54C330.729 277.123 331.062 280.616 331.062 280.616L328.151 283.194L325.78 282.362C325.78 282.362 325.614 281.281 326.404 281.198C327.236 281.073 325.864 280.491 325.448 280.241C325.032 279.95 321.58 278.121 323.701 275.293Z" fill="#FCD2B1"/>
<path d="M314.466 217.739C313.8 219.693 314.798 221.897 316.711 222.563L320.121 223.81C322.034 224.517 324.113 223.436 324.779 221.482L327.814 212.499C328.48 210.545 327.482 208.341 325.569 207.634L322.159 206.386C320.246 205.679 318.167 206.76 317.501 208.715L314.466 217.739Z" fill="#FF957E"/>
<path d="M329.354 225.641C329.022 226.93 327.691 227.72 326.443 227.346L316.172 224.393C314.924 224.019 314.176 222.688 314.508 221.358L318.709 205.597C319.041 204.308 320.372 203.518 321.62 203.892L331.891 206.803C333.139 207.177 333.887 208.508 333.554 209.839L329.354 225.641Z" fill="#FCD2B1"/>
<path d="M334.675 208.258C334.759 208.175 333.719 207.011 334.26 204.724C334.967 201.646 332.679 200.399 330.974 200.357C329.976 200.316 326.608 201.937 324.82 202.478C323.032 203.019 323.198 202.312 319.954 201.73C317.792 201.314 317.293 202.52 316.544 204.183C315.796 205.888 315.713 212.375 315.713 212.375C316.004 212.791 316.461 213.124 316.752 212.791C317.043 212.458 318.208 207.26 319.164 205.722C320.079 204.183 323.822 206.637 325.859 207.843C327.855 209.049 329.644 209.256 332.846 208.591C333.22 209.007 333.553 209.464 333.553 209.672C333.553 210.088 332.638 213.041 332.638 213.041C332.638 213.041 334.426 211.918 334.925 211.045C335.174 210.753 335.258 209.34 334.675 208.258Z" fill="#5E4DB6"/>
<path d="M317.753 218.073C317.628 218.489 317.212 218.78 316.796 218.655L314.592 218.031C314.176 217.906 313.927 217.449 314.052 217.033L315.174 212.833C315.299 212.417 315.715 212.126 316.131 212.251L318.335 212.875C318.751 212.999 319 213.457 318.875 213.873L317.753 218.073Z" fill="#FCD2B1"/>
<path d="M316.38 214.081C316.38 214.081 314.716 220.277 314.176 222.356C313.677 224.228 313.302 228.553 323.491 231.464C329.521 233.169 330.519 228.511 330.934 227.014C331.225 225.85 330.893 222.065 330.435 221.234C330.435 221.192 329.77 223.812 329.77 223.812C329.77 223.812 329.188 220.943 326.318 220.152C321.703 218.822 319.873 221.358 317.877 220.693C316.296 220.152 315.839 217.158 316.38 214.081Z" fill="#5E4DB6"/>
<path d="M323.324 223.603L326.485 224.518C326.901 224.643 327.358 224.393 327.441 223.936L327.566 223.478L322.867 222.147L322.742 222.605C322.659 223.062 322.909 223.478 323.324 223.603Z" fill="#FCD2B1"/>
<path d="M373.434 286.605C371.978 290.805 346.362 306.233 337.754 305.318L311.846 306.607C289.848 303.821 279.41 268.391 279.41 268.391C280.283 259.492 301.991 272.383 309.725 276.375C321.951 282.696 329.728 283.029 329.728 283.029C337.92 283.902 347.401 277.332 357.756 277.124C369.109 276.833 375.762 279.993 373.434 286.605Z" fill="#0B4870"/>
<path d="M317.131 282.363C317.131 282.322 317.131 282.322 317.131 282.363V281.199L361.668 280.367V281.532L361.543 281.739C361.003 282.738 359.963 282.904 358.799 282.945L320.042 283.694C318.877 283.736 317.838 283.569 317.255 282.613L317.131 282.363Z" fill="#D3D3D3"/>
<path d="M327.855 282.322L327.73 282.53C327.564 282.779 327.356 282.987 327.106 283.112L320.328 283.237C319.205 283.278 318.207 283.154 317.625 282.364L317.5 282.197L317.459 282.156V281.615L327.772 281.407L327.855 282.322ZM333.885 281.906L356.133 281.49V280.7L333.843 281.158L333.885 281.906ZM328.105 280.95L333.469 258.161C333.594 257.579 334.176 257.08 334.758 257.038L366.03 256.456C366.612 256.456 366.945 256.913 366.82 257.537L361.456 280.326L328.105 280.95Z" fill="#D3D3D3"/>
<path d="M307.937 312.47C311.014 313.01 313.385 309.309 313.385 309.309L321.369 302.822L319.664 298.414L304.111 305.65C304.111 305.65 304.818 311.929 307.937 312.47Z" fill="#FCD2B1"/>
<path d="M313.344 309.06C313.344 309.06 313.344 309.434 312.762 311.139C312.18 312.844 311.431 313.427 310.682 313.676C307.688 314.591 305.568 314.133 298.415 315.547C291.262 316.961 289.1 315.88 287.021 312.47C284.941 309.06 287.104 306.357 290.597 306.108C295.629 305.733 298.457 306.315 301.076 305.9C303.821 305.484 303.987 304.818 305.609 303.779C307.106 302.822 308.52 308.561 307.106 309.892C305.817 311.056 312.304 311.223 313.344 309.06Z" fill="#708ECA"/>
<path d="M311.846 312.346C308.894 313.261 306.731 312.803 299.579 314.217C292.426 315.631 290.264 314.55 288.184 311.14C287.228 309.56 287.186 308.146 287.727 307.064C286.147 308.187 285.606 310.142 287.02 312.471C289.099 315.88 291.262 316.962 298.414 315.548C305.567 314.134 307.729 314.591 310.682 313.676C311.264 313.51 311.846 313.094 312.345 312.138C312.179 312.221 312.013 312.304 311.846 312.346Z" fill="white"/>
<path d="M313.342 309.184V309.102C313.342 309.143 313.301 309.184 313.26 309.226C313.301 309.184 313.342 309.184 313.342 309.184Z" fill="#E9D6B8"/>
<path d="M297.915 311.722C297.707 311.805 297.499 311.348 297.416 310.724C297.291 309.435 297 308.187 296.584 306.898C296.377 306.274 296.377 305.734 296.626 305.65C296.876 305.567 297.291 306.025 297.458 306.649C297.874 307.896 298.123 309.185 298.248 310.433C298.331 311.057 298.123 311.639 297.915 311.722ZM300.119 311.306C299.87 311.348 299.662 310.932 299.579 310.35C299.454 309.144 299.163 307.938 298.747 306.773C298.539 306.191 298.539 305.692 298.83 305.65C299.08 305.609 299.495 306.066 299.703 306.649C300.078 307.813 300.369 309.019 300.493 310.183C300.535 310.765 300.369 311.264 300.119 311.306ZM302.448 311.223C302.198 311.264 301.949 310.807 301.866 310.183C301.658 308.936 301.367 307.73 300.909 306.482C300.701 305.858 300.701 305.359 300.951 305.359C301.242 305.359 301.658 305.817 301.866 306.441C302.323 307.647 302.614 308.894 302.781 310.1C302.864 310.682 302.697 311.181 302.448 311.223Z" fill="white"/>
<path d="M308.478 301.866C308.478 301.866 363.246 278.537 366.365 278.496C376.927 278.412 374.515 289.474 369.151 294.714C362.83 300.868 314.758 312.138 314.758 312.138L308.478 301.866Z" fill="#0E538C"/>
<path d="M330.185 305.941L315.215 291.22L321.619 284.691L337.92 302.49L330.185 305.941Z" fill="#FCD2B1"/>
<path d="M333.263 294.381C333.263 294.381 295.213 258.243 292.676 257.162C283.985 253.502 278.62 263.441 278.911 266.893C279.327 271.342 317.96 307.521 317.96 307.521L333.263 294.381Z" fill="#0E538C"/>
<path d="M355.801 307.064C356.674 307.896 356.84 310.432 356.84 310.432C356.84 310.432 344.157 315.423 339.707 315.506C338.543 315.547 336.463 315.048 334.467 314.466C334.135 314.383 333.345 313.468 333.012 313.385C332.388 313.219 332.263 313.801 331.764 313.634C330.434 313.177 329.436 312.803 329.394 312.72C326.691 306.815 327.606 303.904 327.606 303.904C327.606 303.904 333.428 305.65 332.43 304.278C330.309 301.367 336.422 298.414 337.753 299.953C343.242 306.149 353.222 304.611 355.801 307.064Z" fill="#708ECA"/>
<path d="M356.509 308.312C352.6 309.934 344.408 313.219 342.786 313.344C336.091 313.843 331.433 311.389 328.314 309.934C328.605 310.766 328.938 311.722 329.395 312.72C329.437 312.803 330.393 313.178 331.766 313.635C332.306 313.801 332.431 313.177 333.013 313.385C333.346 313.469 334.095 314.383 334.469 314.467C336.465 315.049 338.544 315.506 339.709 315.506C344.158 315.423 356.842 310.433 356.842 310.433C356.842 310.433 356.842 309.269 356.509 308.312ZM347.568 304.486C347.693 304.736 347.194 304.985 346.487 305.152C345.031 305.443 343.618 305.9 342.204 306.482C341.497 306.773 340.873 306.857 340.79 306.607C340.707 306.358 341.164 305.9 341.871 305.609C343.243 305.027 344.699 304.611 346.113 304.32C346.778 304.112 347.443 304.237 347.568 304.486ZM344.699 303.447C344.823 303.696 344.324 304.029 343.617 304.237C342.204 304.653 340.831 305.235 339.459 305.942C338.794 306.274 338.17 306.399 338.087 306.15C338.004 305.9 338.461 305.36 339.126 305.027C340.457 304.361 341.829 303.779 343.243 303.405C343.95 303.114 344.616 303.197 344.699 303.447ZM341.954 302.532C342.037 302.781 341.58 303.155 340.914 303.405C339.542 303.946 338.211 304.611 336.922 305.401C336.299 305.817 335.716 305.942 335.633 305.651C335.55 305.401 335.966 304.819 336.631 304.403C337.92 303.613 339.251 302.948 340.582 302.449C341.247 302.241 341.871 302.282 341.954 302.532Z" fill="white"/>
</svg>
