<svg width="25" height="25" viewBox="0 0 25 25" fill="none" xmlns="http://www.w3.org/2000/svg">
<g clip-path="url(#clip0_101_134)">
<path d="M18.5137 0.462891H5.76367C2.65707 0.462891 0.138672 2.98129 0.138672 6.08789V18.8379C0.138672 21.9445 2.65707 24.4629 5.76367 24.4629H18.5137C21.6203 24.4629 24.1387 21.9445 24.1387 18.8379V6.08789C24.1387 2.98129 21.6203 0.462891 18.5137 0.462891Z" fill="url(#paint0_radial_101_134)"/>
<path d="M18.5137 0.462891H5.76367C2.65707 0.462891 0.138672 2.98129 0.138672 6.08789V18.8379C0.138672 21.9445 2.65707 24.4629 5.76367 24.4629H18.5137C21.6203 24.4629 24.1387 21.9445 24.1387 18.8379V6.08789C24.1387 2.98129 21.6203 0.462891 18.5137 0.462891Z" fill="url(#paint1_radial_101_134)"/>
<path d="M12.1356 3.08691C9.58955 3.08691 9.26995 3.09807 8.27002 3.14354C7.27195 3.18929 6.59067 3.34726 5.99461 3.5791C5.37792 3.81854 4.85489 4.13888 4.33383 4.66013C3.8123 5.18129 3.49195 5.70432 3.25177 6.32073C3.01927 6.91698 2.86111 7.59854 2.8162 8.59613C2.77148 9.59617 2.75977 9.91585 2.75977 12.462C2.75977 15.0082 2.77102 15.3267 2.81639 16.3267C2.86233 17.3247 3.0203 18.006 3.25195 18.6021C3.49158 19.2188 3.81192 19.7418 4.33317 20.2629C4.85414 20.7844 5.37717 21.1055 5.99339 21.3449C6.58992 21.5768 7.2713 21.7347 8.26917 21.7805C9.2692 21.826 9.58852 21.8371 12.1345 21.8371C14.6808 21.8371 14.9994 21.826 15.9993 21.7805C16.9974 21.7347 17.6794 21.5768 18.276 21.3449C18.8924 21.1055 19.4146 20.7844 19.9355 20.2629C20.457 19.7418 20.7773 19.2188 21.0176 18.6024C21.248 18.006 21.4063 17.3245 21.4531 16.3269C21.498 15.3269 21.5098 15.0082 21.5098 12.462C21.5098 9.91585 21.498 9.59635 21.4531 8.59632C21.4063 7.59826 21.248 6.91707 21.0176 6.32101C20.7773 5.70432 20.457 5.18129 19.9355 4.66013C19.4141 4.1387 18.8925 3.81835 18.2754 3.5792C17.6777 3.34726 16.9961 3.1892 15.998 3.14354C14.998 3.09807 14.6796 3.08691 12.1327 3.08691H12.1356ZM11.2946 4.77638C11.5442 4.77601 11.8228 4.77638 12.1356 4.77638C14.6388 4.77638 14.9355 4.78538 15.924 4.83029C16.838 4.8721 17.3341 5.02482 17.6646 5.15316C18.1021 5.32304 18.414 5.5262 18.742 5.85442C19.0701 6.18254 19.2732 6.49501 19.4435 6.93254C19.5719 7.26254 19.7248 7.75867 19.7664 8.67273C19.8113 9.66104 19.821 9.95785 19.821 12.4599C19.821 14.9619 19.8113 15.2588 19.7664 16.247C19.7246 17.161 19.5719 17.6572 19.4435 17.9873C19.2736 18.4248 19.0701 18.7363 18.742 19.0643C18.4139 19.3924 18.1023 19.5955 17.6646 19.7654C17.3345 19.8943 16.838 20.0467 15.924 20.0885C14.9356 20.1334 14.6388 20.1431 12.1356 20.1431C9.6323 20.1431 9.33558 20.1334 8.34736 20.0885C7.4333 20.0463 6.93717 19.8936 6.60642 19.7652C6.16898 19.5953 5.85642 19.3922 5.5283 19.0641C5.20017 18.736 4.99711 18.4242 4.82677 17.9865C4.69842 17.6564 4.54552 17.1603 4.50389 16.2462C4.45898 15.2579 4.44998 14.9611 4.44998 12.4575C4.44998 9.95401 4.45898 9.6587 4.50389 8.67038C4.5457 7.75632 4.69842 7.2602 4.82677 6.92973C4.99673 6.4922 5.20017 6.17973 5.52839 5.8516C5.85652 5.52348 6.16898 5.32032 6.60652 5.15007C6.93698 5.02116 7.4333 4.86882 8.34736 4.82682C9.2122 4.78773 9.54736 4.77601 11.2946 4.77404V4.77638ZM17.14 6.33301C16.5189 6.33301 16.015 6.83645 16.015 7.45763C16.015 8.07873 16.5189 8.58264 17.14 8.58264C17.7611 8.58264 18.265 8.07873 18.265 7.45763C18.265 6.83654 17.7611 6.33263 17.14 6.33263V6.33301ZM12.1356 7.64748C9.47686 7.64748 7.32117 9.80317 7.32117 12.462C7.32117 15.1209 9.47686 17.2755 12.1356 17.2755C14.7945 17.2755 16.9494 15.1209 16.9494 12.462C16.9494 9.80326 14.7943 7.64748 12.1354 7.64748H12.1356ZM12.1356 9.33695C13.8615 9.33695 15.2607 10.736 15.2607 12.462C15.2607 14.1879 13.8615 15.5871 12.1356 15.5871C10.4097 15.5871 9.01064 14.1879 9.01064 12.462C9.01064 10.736 10.4097 9.33695 12.1356 9.33695Z" fill="white"/>
</g>
<defs>
<radialGradient id="paint0_radial_101_134" cx="0" cy="0" r="1" gradientUnits="userSpaceOnUse" gradientTransform="translate(6.51367 26.3114) rotate(-90) scale(23.7858 22.1227)">
<stop stop-color="#FFDD55"/>
<stop offset="0.1" stop-color="#FFDD55"/>
<stop offset="0.5" stop-color="#FF543E"/>
<stop offset="1" stop-color="#C837AB"/>
</radialGradient>
<radialGradient id="paint1_radial_101_134" cx="0" cy="0" r="1" gradientUnits="userSpaceOnUse" gradientTransform="translate(-3.88142 2.19173) rotate(78.681) scale(10.6324 43.827)">
<stop stop-color="#3771C8"/>
<stop offset="0.128" stop-color="#3771C8"/>
<stop offset="1" stop-color="#6600FF" stop-opacity="0"/>
</radialGradient>
<clipPath id="clip0_101_134">
<rect width="24" height="24" fill="white" transform="translate(0.133301 0.462891)"/>
</clipPath>
</defs>
</svg>
