<svg width="24" height="25" viewBox="0 0 24 25" fill="none" xmlns="http://www.w3.org/2000/svg">
<g clip-path="url(#clip0_101_121)">
<path d="M18.3777 0.462891H5.62769C2.52108 0.462891 0.00268555 2.98129 0.00268555 6.08789V18.8379C0.00268555 21.9445 2.52108 24.4629 5.62769 24.4629H18.3777C21.4843 24.4629 24.0027 21.9445 24.0027 18.8379V6.08789C24.0027 2.98129 21.4843 0.462891 18.3777 0.462891Z" fill="white"/>
<path d="M18.3777 0.462891H5.62769C2.52108 0.462891 0.00268555 2.98129 0.00268555 6.08789V18.8379C0.00268555 21.9445 2.52108 24.4629 5.62769 24.4629H18.3777C21.4843 24.4629 24.0027 21.9445 24.0027 18.8379V6.08789C24.0027 2.98129 21.4843 0.462891 18.3777 0.462891Z" fill="#1D9BF0"/>
<path d="M18.7126 9.03267C18.7229 9.18145 18.7229 9.33023 18.7229 9.48042C18.7229 14.0551 15.2402 19.3312 8.87209 19.3312V19.3284C6.99083 19.3311 5.14853 18.7923 3.56519 17.7764C3.83875 17.8093 4.11362 17.8257 4.38925 17.8263C5.94846 17.8275 7.46282 17.3046 8.689 16.3414C7.96656 16.3278 7.26644 16.0887 6.68654 15.6576C6.10663 15.2265 5.67592 14.625 5.45462 13.9372C5.97332 14.0372 6.50805 14.0168 7.01762 13.8776C5.4025 13.5512 4.24047 12.1321 4.24047 10.484V10.4401C4.72196 10.7083 5.26082 10.8569 5.81172 10.8734C4.29053 9.85673 3.82159 7.83295 4.74015 6.25064C5.60934 7.32023 6.6938 8.19501 7.92311 8.81817C9.15241 9.44132 10.4991 9.79891 11.8756 9.8677C11.7383 9.27692 11.7586 8.66047 11.9343 8.07998C12.1101 7.4995 12.4352 6.97534 12.8771 6.55992C14.2715 5.24911 16.4646 5.31632 17.7754 6.71001C18.5507 6.55694 19.2943 6.2727 19.974 5.86954C19.7155 6.67116 19.1747 7.35161 18.452 7.78429C19.1383 7.70343 19.8086 7.51972 20.4402 7.23932C19.9756 7.93513 19.3905 8.54237 18.7126 9.03267Z" fill="white"/>
</g>
<defs>
<clipPath id="clip0_101_121">
<rect width="24" height="24" fill="white" transform="translate(0 0.462891)"/>
</clipPath>
</defs>
</svg>
