<svg width="35" height="25" viewBox="0 0 35 25" fill="none" xmlns="http://www.w3.org/2000/svg">
<g clip-path="url(#clip0_101_128)">
<path d="M33.3795 4.20623C33.1837 3.4827 32.8018 2.82308 32.2718 2.29306C31.7418 1.76304 31.0822 1.38111 30.3587 1.18529C27.7099 0.462891 17.0494 0.462891 17.0494 0.462891C17.0494 0.462891 6.3883 0.484757 3.73949 1.20716C3.01596 1.40298 2.35635 1.78494 1.82635 2.31499C1.29635 2.84503 0.914456 3.50467 0.718693 4.22822C-0.0825078 8.93463 -0.393308 16.1061 0.740693 20.6242C0.936476 21.3478 1.31838 22.0074 1.84838 22.5374C2.37838 23.0674 3.03798 23.4493 3.76149 23.6452C6.4103 24.3676 17.0711 24.3676 17.0711 24.3676C17.0711 24.3676 27.7318 24.3676 30.3804 23.6452C31.104 23.4494 31.7636 23.0674 32.2936 22.5374C32.8237 22.0074 33.2056 21.3478 33.4014 20.6242C34.2464 15.9112 34.5068 8.74409 33.3795 4.20623Z" fill="#FF0000"/>
<path d="M13.6584 17.5397L22.5022 12.4173L13.6584 7.29492V17.5397Z" fill="white"/>
</g>
<defs>
<clipPath id="clip0_101_128">
<rect width="34.1333" height="24" fill="white" transform="translate(0 0.462891)"/>
</clipPath>
</defs>
</svg>
