<svg width="54" height="49" viewBox="0 0 54 49" fill="none" xmlns="http://www.w3.org/2000/svg">
<path d="M52.0958 0H24.4837C23.5219 0 22.7862 0.735689 22.7862 1.69757V17.5406C23.0123 17.597 23.2953 17.597 23.465 17.597C26.5203 17.597 28.9535 20.0867 28.9535 23.142C28.9535 26.1972 26.4638 28.6869 23.4086 28.6869H22.7861V47.3024C22.7861 48.2643 23.5218 49 24.4837 49H52.0958C53.0576 49 53.7934 48.2643 53.7934 47.3024L53.793 1.64165C53.793 0.736244 53.0573 0.000565048 52.0954 0.000565048L52.0958 0ZM50.4551 45.5486H31.2172L42.0244 42.8893C42.8165 42.6631 43.3825 41.9839 43.3825 41.1917V7.80824C43.3825 6.95967 42.8165 6.28042 42.0244 6.11067L31.2172 3.39483H50.4551V45.5486ZM37.0452 24.4435C37.0452 23.5381 37.7809 22.7459 38.7427 22.7459C39.6481 22.7459 40.4403 23.4816 40.4403 24.4435C40.4403 25.4054 39.7046 26.1411 38.7427 26.1411C37.7809 26.0842 37.0452 25.3489 37.0452 24.4435Z" fill="#1F4E48"/>
<path d="M15.0348 20.9351C15.3742 21.614 15.7136 22.1799 16.1099 22.6327C18.5428 25.2356 22.9566 25.292 23.4657 25.292C24.6541 25.292 25.6724 24.3302 25.6724 23.0853C25.6724 21.8969 24.7106 20.9351 23.5222 20.8786C22.5603 20.8786 20.2404 20.5392 19.335 19.5773C19.2217 19.4076 18.8823 18.7288 18.6561 18.276C17.6943 16.2391 16.2233 13.2402 13.2241 13.2402H7.96212C4.34086 13.2402 2.98278 17.0312 2.19063 19.0682C2.02131 19.3508 1.96448 19.577 1.8516 19.8031C1.11591 21.6139 0.154031 26.3098 0.0407659 26.8194C-0.185391 28.0078 0.549915 29.1394 1.73833 29.3655C1.90805 29.4219 2.02132 29.4219 2.1346 29.4219C3.15288 29.4219 4.05829 28.6862 4.28482 27.668C4.62425 25.8008 5.41636 22.5189 5.81264 21.4437C5.86908 21.3305 5.86908 21.2176 5.92592 21.1607L6.09563 28.177L4.05827 46.3399C3.88855 47.5847 4.79396 48.7164 6.09523 48.886H6.37822C7.50976 48.886 8.52844 48.0374 8.6413 46.849L10.5085 30.3836L12.4322 46.849C12.6019 48.0938 13.7335 48.9993 14.9783 48.886C16.2231 48.7163 17.1285 47.5847 17.0153 46.3399L14.9218 28.177L15.0348 20.9351Z" fill="#1F4E48"/>
<path d="M15.0913 7.52641C15.0913 10.058 13.0393 12.1099 10.5083 12.1099C7.97672 12.1099 5.9248 10.0579 5.9248 7.52641C5.9248 4.99527 7.97682 2.94336 10.5083 2.94336C13.0394 2.94336 15.0913 4.99537 15.0913 7.52641Z" fill="#1F4E48"/>
</svg>
