<svg width="24" height="11" viewBox="0 0 24 11" fill="none" xmlns="http://www.w3.org/2000/svg">
<path fill-rule="evenodd" clip-rule="evenodd" d="M0 5.5C0 5.33795 0.0903001 5.18253 0.251035 5.06794C0.41177 4.95335 0.629774 4.88897 0.857088 4.88897H21.0724L15.6779 1.0444C15.5169 0.929669 15.4265 0.774056 15.4265 0.611797C15.4265 0.449538 15.5169 0.293925 15.6779 0.179191C15.8388 0.0644569 16.0571 3.82295e-09 16.2847 0C16.5123 -3.82295e-09 16.7306 0.0644569 16.8915 0.179191L23.7482 5.06739C23.828 5.12415 23.8913 5.19158 23.9346 5.26581C23.9778 5.34005 24 5.41963 24 5.5C24 5.58037 23.9778 5.65995 23.9346 5.73419C23.8913 5.80842 23.828 5.87585 23.7482 5.93261L16.8915 10.8208C16.7306 10.9355 16.5123 11 16.2847 11C16.0571 11 15.8388 10.9355 15.6779 10.8208C15.5169 10.7061 15.4265 10.5505 15.4265 10.3882C15.4265 10.2259 15.5169 10.0703 15.6779 9.9556L21.0724 6.11103H0.857088C0.629774 6.11103 0.41177 6.04665 0.251035 5.93206C0.0903001 5.81747 0 5.66205 0 5.5Z" fill="#F2F6FF"/>
</svg>
