<svg width="24" height="24" viewBox="0 0 24 24" fill="none" xmlns="http://www.w3.org/2000/svg">
<path d="M1.47248 23.9999C1.09581 23.9999 0.719138 23.8559 0.431305 23.5687C-0.143768 22.9942 -0.143768 22.0614 0.431305 21.4863L21.4863 0.431305C22.0614 -0.143768 22.993 -0.143768 23.5687 0.431305C24.1438 1.00579 24.1438 1.93858 23.5687 2.51365L2.51365 23.5687C2.22582 23.8565 1.84915 23.9999 1.47248 23.9999Z" fill="black"/>
<path d="M22.5275 23.9999C22.1509 23.9999 21.7742 23.8559 21.4863 23.5687L0.431305 2.51365C-0.143768 1.93917 -0.143768 1.00638 0.431305 0.431305C1.00638 -0.143768 1.93799 -0.143768 2.51365 0.431305L23.5687 21.4863C24.1438 22.0608 24.1438 22.9936 23.5687 23.5687C23.2809 23.8565 22.9042 23.9999 22.5275 23.9999Z" fill="black"/>
</svg>
