<svg width="24" height="19" viewBox="0 0 24 19" fill="none" xmlns="http://www.w3.org/2000/svg">
<path d="M24 18C24 18.2273 23.9097 18.4453 23.7489 18.6061C23.5882 18.7668 23.3702 18.8571 23.1429 18.8571H0.857143C0.629814 18.8571 0.411797 18.7668 0.251051 18.6061C0.0903058 18.4453 0 18.2273 0 18C0 17.7727 0.0903058 17.5547 0.251051 17.3939C0.411797 17.2332 0.629814 17.1429 0.857143 17.1429H23.1429C23.3702 17.1429 23.5882 17.2332 23.7489 17.3939C23.9097 17.5547 24 17.7727 24 18ZM0.857143 1.71429H23.1429C23.3702 1.71429 23.5882 1.62398 23.7489 1.46323C23.9097 1.30249 24 1.08447 24 0.857143C24 0.629814 23.9097 0.411797 23.7489 0.251051C23.5882 0.090306 23.3702 0 23.1429 0H0.857143C0.629814 0 0.411797 0.090306 0.251051 0.251051C0.0903058 0.411797 0 0.629814 0 0.857143C0 1.08447 0.0903058 1.30249 0.251051 1.46323C0.411797 1.62398 0.629814 1.71429 0.857143 1.71429ZM23.1429 8.57143H0.857143C0.629814 8.57143 0.411797 8.66173 0.251051 8.82248C0.0903058 8.98323 0 9.20124 0 9.42857C0 9.6559 0.0903058 9.87392 0.251051 10.0347C0.411797 10.1954 0.629814 10.2857 0.857143 10.2857H23.1429C23.3702 10.2857 23.5882 10.1954 23.7489 10.0347C23.9097 9.87392 24 9.6559 24 9.42857C24 9.20124 23.9097 8.98323 23.7489 8.82248C23.5882 8.66173 23.3702 8.57143 23.1429 8.57143Z" fill="black"/>
</svg>
