<svg width="24" height="24" viewBox="0 0 24 24" fill="none" xmlns="http://www.w3.org/2000/svg">
<g clip-path="url(#clip0_544_131)">
<path d="M9.00013 16.296L9.00163 16.2945L4.95163 12.2445C4.81491 12.1031 4.73918 11.9137 4.74075 11.7171C4.74231 11.5204 4.82106 11.3323 4.96002 11.1931C5.09898 11.054 5.28703 10.9749 5.48368 10.9731C5.68033 10.9712 5.86984 11.0467 6.01138 11.1832L10.0614 15.234L18.0166 7.28024C18.0858 7.2086 18.1686 7.15147 18.2601 7.11216C18.3516 7.07285 18.45 7.05216 18.5496 7.0513C18.6492 7.05043 18.7479 7.06941 18.8401 7.10712C18.9323 7.14483 19.016 7.20052 19.0864 7.27094C19.1568 7.34136 19.2125 7.4251 19.2502 7.51727C19.288 7.60944 19.3069 7.7082 19.3061 7.80779C19.3052 7.90737 19.2845 8.00579 19.2452 8.09729C19.2059 8.18879 19.1488 8.27155 19.0771 8.34074L10.5909 16.8262C10.4502 16.9668 10.2595 17.0458 10.0606 17.0458C9.86176 17.0458 9.67103 16.9668 9.53038 16.8262L9.00013 16.296Z" fill="#2B47BF"/>
<path d="M4.5 0.75C4.00754 0.75 3.51991 0.846997 3.06494 1.03545C2.60997 1.22391 2.19657 1.50013 1.84835 1.84835C1.14509 2.55161 0.75 3.50544 0.75 4.5V19.5C0.75 20.4946 1.14509 21.4484 1.84835 22.1516C2.19657 22.4999 2.60997 22.7761 3.06494 22.9645C3.51991 23.153 4.00754 23.25 4.5 23.25H19.5C20.4946 23.25 21.4484 22.8549 22.1516 22.1516C22.8549 21.4484 23.25 20.4946 23.25 19.5V4.5C23.25 4.00754 23.153 3.51991 22.9645 3.06494C22.7761 2.60997 22.4999 2.19657 22.1516 1.84835C21.8034 1.50013 21.39 1.22391 20.9351 1.03545C20.4801 0.846997 19.9925 0.75 19.5 0.75H4.5ZM2.25 4.5C2.25 3.90326 2.48705 3.33097 2.90901 2.90901C3.33097 2.48705 3.90326 2.25 4.5 2.25H19.5C20.0967 2.25 20.669 2.48705 21.091 2.90901C21.5129 3.33097 21.75 3.90326 21.75 4.5V19.5C21.75 20.0967 21.5129 20.669 21.091 21.091C20.669 21.5129 20.0967 21.75 19.5 21.75H4.5C3.90326 21.75 3.33097 21.5129 2.90901 21.091C2.48705 20.669 2.25 20.0967 2.25 19.5V4.5Z" fill="#2B47BF"/>
<path d="M9.0015 16.2945L9.26625 16.56L9.53175 16.2945L9.26625 16.0297L9.0015 16.2945ZM9 16.296L8.73525 16.0305L8.46975 16.296L8.7345 16.5607L9 16.296ZM10.0612 15.234L9.7965 15.4995L10.062 15.7642L10.3267 15.4995L10.0612 15.234ZM1.125 4.5C1.125 3.60489 1.48058 2.74645 2.11351 2.11351C2.74645 1.48058 3.60489 1.125 4.5 1.125V0.375C3.40598 0.375 2.35677 0.809597 1.58318 1.58318C0.809597 2.35677 0.375 3.40598 0.375 4.5H1.125ZM1.125 19.5V4.5H0.375V19.5H1.125ZM4.5 22.875C3.60489 22.875 2.74645 22.5194 2.11351 21.8865C1.48058 21.2535 1.125 20.3951 1.125 19.5H0.375C0.375 20.594 0.809597 21.6432 1.58318 22.4168C2.35677 23.1904 3.40598 23.625 4.5 23.625V22.875ZM19.5 22.875H4.5V23.625H19.5V22.875ZM22.875 19.5C22.875 20.3951 22.5194 21.2535 21.8865 21.8865C21.2535 22.5194 20.3951 22.875 19.5 22.875V23.625C20.594 23.625 21.6432 23.1904 22.4168 22.4168C23.1904 21.6432 23.625 20.594 23.625 19.5H22.875ZM22.875 4.5V19.5H23.625V4.5H22.875ZM19.5 1.125C20.3951 1.125 21.2535 1.48058 21.8865 2.11351C22.5194 2.74645 22.875 3.60489 22.875 4.5H23.625C23.625 3.40598 23.1904 2.35677 22.4168 1.58318C21.6432 0.809597 20.594 0.375 19.5 0.375V1.125ZM4.5 1.125H19.5V0.375H4.5V1.125ZM4.5 1.875C3.80381 1.875 3.13613 2.15156 2.64384 2.64384C2.15156 3.13613 1.875 3.80381 1.875 4.5H2.625C2.625 4.00272 2.82254 3.52581 3.17417 3.17417C3.52581 2.82254 4.00272 2.625 4.5 2.625V1.875ZM19.5 1.875H4.5V2.625H19.5V1.875ZM22.125 4.5C22.125 4.15528 22.0571 3.81394 21.9252 3.49546C21.7933 3.17698 21.5999 2.8876 21.3562 2.64384C21.1124 2.40009 20.823 2.20673 20.5045 2.07482C20.1861 1.9429 19.8447 1.875 19.5 1.875V2.625C19.9973 2.625 20.4742 2.82254 20.8258 3.17417C21.1775 3.52581 21.375 4.00272 21.375 4.5H22.125ZM22.125 19.5V4.5H21.375V19.5H22.125ZM19.5 22.125C19.8447 22.125 20.1861 22.0571 20.5045 21.9252C20.823 21.7933 21.1124 21.5999 21.3562 21.3562C21.5999 21.1124 21.7933 20.823 21.9252 20.5045C22.0571 20.1861 22.125 19.8447 22.125 19.5H21.375C21.375 19.9973 21.1775 20.4742 20.8258 20.8258C20.4742 21.1775 19.9973 21.375 19.5 21.375V22.125ZM4.5 22.125H19.5V21.375H4.5V22.125ZM1.875 19.5C1.875 19.8447 1.9429 20.1861 2.07482 20.5045C2.20673 20.823 2.40009 21.1124 2.64384 21.3562C2.8876 21.5999 3.17698 21.7933 3.49546 21.9252C3.81394 22.0571 4.15528 22.125 4.5 22.125V21.375C4.00272 21.375 3.52581 21.1775 3.17417 20.8258C2.82254 20.4742 2.625 19.9973 2.625 19.5H1.875ZM1.875 4.5V19.5H2.625V4.5H1.875ZM8.736 16.029L8.73525 16.0305L9.26475 16.5615L9.26625 16.56L8.736 16.029ZM4.686 12.5093L8.736 16.5592L9.26625 16.0297L5.21625 11.979L4.686 12.5093ZM4.686 10.9185C4.4751 11.1295 4.35662 11.4156 4.35662 11.7139C4.35662 12.0122 4.4751 12.2983 4.686 12.5093L5.21625 11.979C5.14595 11.9087 5.10645 11.8133 5.10645 11.7139C5.10645 11.6144 5.14595 11.5191 5.21625 11.4488L4.686 10.9185ZM6.276 10.9185C6.06506 10.7078 5.77913 10.5895 5.481 10.5895C5.18287 10.5895 4.89694 10.7078 4.686 10.9185L5.21625 11.4488C5.28657 11.3784 5.38194 11.339 5.48137 11.339C5.58081 11.339 5.67618 11.3784 5.7465 11.4488L6.276 10.9185ZM10.3267 14.9685L6.27675 10.9185L5.7465 11.4488L9.7965 15.4995L10.3267 14.9685ZM17.751 7.0155L9.7965 14.9692L10.3267 15.4995L18.2805 7.545L17.751 7.0155ZM19.3417 7.0155C19.2373 6.91096 19.1132 6.82803 18.9767 6.77144C18.8401 6.71486 18.6938 6.68574 18.546 6.68574C18.3982 6.68574 18.2519 6.71486 18.1153 6.77144C17.9788 6.82803 17.8555 6.91096 17.751 7.0155L18.2805 7.545C18.3508 7.4747 18.4462 7.43596 18.5456 7.43596C18.6451 7.43596 18.7404 7.47545 18.8107 7.54575L19.3417 7.0155ZM19.3417 8.6055C19.5524 8.39456 19.6708 8.10863 19.6708 7.8105C19.6708 7.51237 19.5524 7.22644 19.3417 7.0155L18.8107 7.54575C18.8811 7.61607 18.9205 7.71144 18.9205 7.81087C18.9205 7.91031 18.8811 8.00568 18.8107 8.076L19.3417 8.6055ZM10.8563 17.0925L19.3417 8.607L18.8107 8.07675L10.326 16.5607L10.8563 17.0925ZM9.2655 17.0925C9.47644 17.3032 9.76237 17.4215 10.0605 17.4215C10.3586 17.4215 10.6446 17.3032 10.8555 17.0925L10.326 16.5615C10.2557 16.6318 10.1603 16.6713 10.0609 16.6713C9.96144 16.6713 9.86607 16.6318 9.79575 16.5615L9.2655 17.0925ZM8.7345 16.5615L9.2655 17.0925L9.79575 16.5615L9.2655 16.0312L8.7345 16.5615Z" fill="#2B47BF"/>
</g>
<defs>
<clipPath id="clip0_544_131">
<rect width="24" height="24" fill="white"/>
</clipPath>
</defs>
</svg>
