<svg width="24" height="28" viewBox="0 0 24 28" fill="none" xmlns="http://www.w3.org/2000/svg">
<g id="fa-solid:address-book">
<path id="Vector" d="M17.5179 6.42857C17.783 6.42857 18 6.21161 18 5.94643V4.33929C18 4.07411 17.783 3.85714 17.5179 3.85714H16.7143V1.92857C16.7143 0.863839 15.8504 0 14.7857 0H1.92857C0.863839 0 0 0.863839 0 1.92857V18.6429C0 19.7076 0.863839 20.5714 1.92857 20.5714H14.7857C15.8504 20.5714 16.7143 19.7076 16.7143 18.6429V16.7143H17.5179C17.783 16.7143 18 16.4973 18 16.2321V14.625C18 14.3598 17.783 14.1429 17.5179 14.1429H16.7143V11.5714H17.5179C17.783 11.5714 18 11.3545 18 11.0893V9.48214C18 9.21697 17.783 9 17.5179 9H16.7143V6.42857H17.5179ZM8.35714 5.14286C9.77545 5.14286 10.9286 6.29598 10.9286 7.71429C10.9286 9.13259 9.77545 10.2857 8.35714 10.2857C6.93884 10.2857 5.78571 9.13259 5.78571 7.71429C5.78571 6.29598 6.93884 5.14286 8.35714 5.14286ZM12.8571 14.6571C12.8571 15.083 12.4554 15.4286 11.9571 15.4286H4.75714C4.25893 15.4286 3.85714 15.083 3.85714 14.6571V13.8857C3.85714 12.608 5.06652 11.5714 6.55714 11.5714H6.75804C7.25223 11.7763 7.79063 11.8929 8.35714 11.8929C8.92366 11.8929 9.46607 11.7763 9.95625 11.5714H10.1571C11.6478 11.5714 12.8571 12.608 12.8571 13.8857V14.6571Z" fill="white"/>
</g>
</svg>
