<svg width="34" height="34" viewBox="0 0 34 34" fill="none" xmlns="http://www.w3.org/2000/svg">
<g id="logos:facebook" clip-path="url(#clip0_232_390)">
<path id="Vector" d="M33.9995 16.7283C33.9995 7.48956 26.5099 0 17.2712 0C8.03252 0 0.542969 7.48956 0.542969 16.7283C0.542969 25.0778 6.66028 31.9984 14.6574 33.2533V21.5638H10.41V16.7283H14.6574V13.0428C14.6574 8.8503 17.1549 6.53448 20.976 6.53448C22.8062 6.53448 24.7205 6.8612 24.7205 6.8612V10.9779H22.6112C20.5331 10.9779 19.885 12.2674 19.885 13.5904V16.7283H24.5245L23.7828 21.5638H19.885V33.2533C27.8822 31.9984 33.9995 25.0779 33.9995 16.7283Z" fill="#1877F2"/>
<path id="Vector_2" d="M23.783 21.5645L24.5246 16.7289H19.8851V13.5911C19.8851 12.268 20.5332 10.9786 22.6113 10.9786H24.7207V6.86188C24.7207 6.86188 22.8063 6.53516 20.976 6.53516C17.155 6.53516 14.6576 8.85097 14.6576 13.0435V16.7289H10.4102V21.5645H14.6576V33.254C15.5222 33.3895 16.3961 33.4574 17.2714 33.4572C18.1466 33.4575 19.0205 33.3895 19.8851 33.254V21.5645H23.783Z" fill="white"/>
</g>
<defs>
<clipPath id="clip0_232_390">
<rect width="33.4565" height="33.4565" fill="white" transform="translate(0.542969)"/>
</clipPath>
</defs>
</svg>
