<svg width="11" height="11" viewBox="0 0 11 11" fill="none" xmlns="http://www.w3.org/2000/svg">
<g id="ph:copyright">
<path id="Vector" d="M5.5 1.03125C4.61617 1.03125 3.75218 1.29334 3.0173 1.78437C2.28242 2.2754 1.70964 2.97333 1.37142 3.78988C1.03319 4.60644 0.94469 5.50496 1.11712 6.37181C1.28955 7.23866 1.71515 8.03492 2.34012 8.65988C2.96508 9.28485 3.76134 9.71046 4.62819 9.88288C5.49504 10.0553 6.39356 9.96682 7.21012 9.62859C8.02668 9.29036 8.7246 8.71759 9.21563 7.9827C9.70666 7.24782 9.96875 6.38384 9.96875 5.5C9.9675 4.3152 9.49629 3.17928 8.6585 2.3415C7.82072 1.50372 6.6848 1.0325 5.5 1.03125ZM5.5 9.28125C4.75214 9.28125 4.02108 9.05948 3.39925 8.64399C2.77743 8.22851 2.29278 7.63796 2.00658 6.94702C1.72039 6.25609 1.64551 5.49581 1.79141 4.76231C1.93731 4.02882 2.29744 3.35507 2.82625 2.82625C3.35507 2.29744 4.02883 1.93731 4.76232 1.79141C5.49581 1.64551 6.25609 1.72039 6.94702 2.00658C7.63796 2.29277 8.22851 2.77743 8.644 3.39925C9.05949 4.02107 9.28125 4.75214 9.28125 5.5C9.28012 6.5025 8.88137 7.46362 8.17249 8.17249C7.46362 8.88137 6.5025 9.28011 5.5 9.28125ZM4.125 5.5C4.125 5.78859 4.2158 6.06986 4.38454 6.30398C4.55328 6.53809 4.79141 6.71318 5.06519 6.80444C5.33897 6.8957 5.63452 6.8985 5.90998 6.81246C6.18544 6.72641 6.42685 6.55587 6.6 6.325C6.65476 6.25207 6.73625 6.20387 6.82654 6.19102C6.91683 6.17816 7.00853 6.20171 7.08147 6.25646C7.1544 6.31122 7.2026 6.39271 7.21545 6.483C7.2283 6.5733 7.20476 6.665 7.15 6.73793C6.89021 7.08413 6.52808 7.33983 6.11491 7.4688C5.70174 7.59778 5.25846 7.5935 4.84785 7.45657C4.43724 7.31965 4.08012 7.05701 3.82706 6.70586C3.574 6.3547 3.43782 5.93284 3.43782 5.5C3.43782 5.06716 3.574 4.6453 3.82706 4.29414C4.08012 3.94299 4.43724 3.68035 4.84785 3.54343C5.25846 3.4065 5.70174 3.40222 6.11491 3.5312C6.52808 3.66017 6.89021 3.91587 7.15 4.26207C7.17711 4.29818 7.19685 4.33928 7.20808 4.38302C7.21931 4.42676 7.22181 4.47229 7.21545 4.517C7.20908 4.5617 7.19398 4.60472 7.17099 4.64359C7.148 4.68246 7.11758 4.71642 7.08147 4.74354C7.04535 4.77065 7.00425 4.79038 6.96051 4.80161C6.91677 4.81284 6.87125 4.81535 6.82654 4.80898C6.78183 4.80262 6.73882 4.78751 6.69995 4.76452C6.66108 4.74153 6.62712 4.71111 6.6 4.675C6.42685 4.44413 6.18544 4.27359 5.90998 4.18754C5.63452 4.1015 5.33897 4.1043 5.06519 4.19556C4.79141 4.28682 4.55328 4.46191 4.38454 4.69602C4.2158 4.93014 4.125 5.21141 4.125 5.5Z" fill="white"/>
</g>
</svg>
