<svg width="34" height="34" viewBox="0 0 34 34" fill="none" xmlns="http://www.w3.org/2000/svg">
<g id="skill-icons:instagram" clip-path="url(#clip0_232_385)">
<g id="Group">
<path id="Vector" d="M25.6151 0.00195312H7.84137C3.5107 0.00195312 0 3.51266 0 7.84333V25.6171C0 29.9478 3.5107 33.4585 7.84137 33.4585H25.6151C29.9458 33.4585 33.4565 29.9478 33.4565 25.6171V7.84333C33.4565 3.51266 29.9458 0.00195312 25.6151 0.00195312Z" fill="url(#paint0_radial_232_385)"/>
<path id="Vector_2" d="M25.6151 0.00195312H7.84137C3.5107 0.00195312 0 3.51266 0 7.84333V25.6171C0 29.9478 3.5107 33.4585 7.84137 33.4585H25.6151C29.9458 33.4585 33.4565 29.9478 33.4565 25.6171V7.84333C33.4565 3.51266 29.9458 0.00195312 25.6151 0.00195312Z" fill="url(#paint1_radial_232_385)"/>
<path id="Vector_3" d="M16.7303 3.66211C13.181 3.66211 12.7355 3.67766 11.3416 3.74105C9.95024 3.80482 9.00052 4.02503 8.1696 4.34823C7.30992 4.68201 6.58081 5.12858 5.85443 5.85521C5.12741 6.58171 4.68084 7.31083 4.34602 8.17011C4.02191 9.0013 3.80143 9.95141 3.73883 11.3421C3.67649 12.7361 3.66016 13.1818 3.66016 16.7312C3.66016 20.2806 3.67584 20.7247 3.73909 22.1186C3.80313 23.5099 4.02334 24.4597 4.34628 25.2906C4.68032 26.1503 5.12688 26.8794 5.85352 27.6057C6.57976 28.3328 7.30888 28.7804 8.1679 29.1142C8.99948 29.4374 9.94933 29.6576 11.3404 29.7213C12.7345 29.7847 13.1796 29.8003 16.7287 29.8003C20.2784 29.8003 20.7225 29.7847 22.1164 29.7213C23.5077 29.6576 24.4585 29.4374 25.2901 29.1142C26.1493 28.7804 26.8774 28.3328 27.6035 27.6057C28.3305 26.8794 28.777 26.1503 29.1119 25.291C29.4332 24.4597 29.6538 23.5097 29.7191 22.1189C29.7817 20.7249 29.7981 20.2806 29.7981 16.7312C29.7981 13.1818 29.7817 12.7364 29.7191 11.3423C29.6538 9.95102 29.4332 9.00143 29.1119 8.17051C28.777 7.31083 28.3305 6.58171 27.6035 5.85521C26.8766 5.12832 26.1496 4.68175 25.2893 4.34836C24.4561 4.02503 23.5059 3.80469 22.1146 3.74105C20.7205 3.67766 20.2767 3.66211 16.7262 3.66211H16.7303ZM15.5579 6.01727C15.9059 6.01674 16.2942 6.01727 16.7303 6.01727C20.2198 6.01727 20.6333 6.02981 22.0113 6.09241C23.2855 6.1507 23.9771 6.36359 24.4378 6.54251C25.0478 6.77932 25.4826 7.06252 25.9397 7.52006C26.3971 7.97748 26.6802 8.41307 26.9177 9.02299C27.0966 9.48302 27.3097 10.1746 27.3678 11.4489C27.4304 12.8266 27.444 13.2403 27.444 16.7282C27.444 20.216 27.4304 20.6299 27.3678 22.0075C27.3095 23.2817 27.0966 23.9734 26.9177 24.4335C26.6809 25.0434 26.3971 25.4777 25.9397 25.9349C25.4823 26.3923 25.048 26.6754 24.4378 26.9123C23.9777 27.092 23.2855 27.3044 22.0113 27.3627C20.6336 27.4253 20.2198 27.4389 16.7303 27.4389C13.2406 27.4389 12.827 27.4253 11.4494 27.3627C10.1752 27.3038 9.48355 27.091 9.02248 26.912C8.41268 26.6751 7.97696 26.392 7.51955 25.9346C7.06214 25.4772 6.77906 25.0427 6.5416 24.4325C6.36269 23.9723 6.14953 23.2807 6.0915 22.0065C6.0289 20.6287 6.01636 20.215 6.01636 16.7249C6.01636 13.235 6.0289 12.8233 6.0915 11.4456C6.14979 10.1714 6.36269 9.47975 6.5416 9.01907C6.77854 8.40915 7.06214 7.97356 7.51968 7.51614C7.97709 7.05873 8.41268 6.77553 9.02261 6.53819C9.48329 6.3585 10.1752 6.14613 11.4494 6.08758C12.655 6.03308 13.1222 6.01674 15.5579 6.014V6.01727ZM23.7065 8.18723C22.8407 8.18723 22.1382 8.88904 22.1382 9.75499C22.1382 10.6208 22.8407 11.3233 23.7065 11.3233C24.5723 11.3233 25.2748 10.6208 25.2748 9.75499C25.2748 8.88917 24.5723 8.18671 23.7065 8.18671V8.18723ZM16.7303 10.0196C13.0239 10.0196 10.0189 13.0247 10.0189 16.7312C10.0189 20.4377 13.0239 23.4413 16.7303 23.4413C20.4368 23.4413 23.4408 20.4377 23.4408 16.7312C23.4408 13.0248 20.4365 10.0196 16.73 10.0196H16.7303ZM16.7303 12.3748C19.1361 12.3748 21.0867 14.3251 21.0867 16.7312C21.0867 19.1371 19.1361 21.0876 16.7303 21.0876C14.3243 21.0876 12.374 19.1371 12.374 16.7312C12.374 14.3251 14.3243 12.3748 16.7303 12.3748Z" fill="white"/>
</g>
</g>
<defs>
<radialGradient id="paint0_radial_232_385" cx="0" cy="0" r="1" gradientUnits="userSpaceOnUse" gradientTransform="translate(8.88689 36.0353) rotate(-90) scale(33.1579 30.8395)">
<stop stop-color="#FFDD55"/>
<stop offset="0.1" stop-color="#FFDD55"/>
<stop offset="0.5" stop-color="#FF543E"/>
<stop offset="1" stop-color="#C837AB"/>
</radialGradient>
<radialGradient id="paint1_radial_232_385" cx="0" cy="0" r="1" gradientUnits="userSpaceOnUse" gradientTransform="translate(-5.6041 2.412) rotate(78.681) scale(14.8218 61.0958)">
<stop stop-color="#3771C8"/>
<stop offset="0.128" stop-color="#3771C8"/>
<stop offset="1" stop-color="#6600FF" stop-opacity="0"/>
</radialGradient>
<clipPath id="clip0_232_385">
<rect width="33.4565" height="33.4565" fill="white"/>
</clipPath>
</defs>
</svg>
