<svg width="16" height="14" viewBox="0 0 16 14" fill="none" xmlns="http://www.w3.org/2000/svg">
<path id="Vector" d="M16 3.80171V10.9287C16 11.5918 15.7366 12.2276 15.2678 12.6965C14.7989 13.1653 14.163 13.4287 13.5 13.4287H2.5C1.83696 13.4287 1.20107 13.1653 0.732233 12.6965C0.263392 12.2276 0 11.5918 0 10.9287V3.80171L7.746 8.35971C7.82295 8.4051 7.91066 8.42903 8 8.42903C8.08934 8.42903 8.17705 8.4051 8.254 8.35971L16 3.80171ZM13.5 0.428711C14.1151 0.428614 14.7087 0.655318 15.1672 1.06545C15.6257 1.47558 15.9168 2.04035 15.985 2.65171L8 7.34871L0.0150001 2.65171C0.0831583 2.04035 0.374324 1.47558 0.832795 1.06545C1.29127 0.655318 1.88485 0.428614 2.5 0.428711H13.5Z" fill="white"/>
</svg>
