<svg width="16" height="17" viewBox="0 0 16 17" fill="none" xmlns="http://www.w3.org/2000/svg">
<path id="Vector" d="M15.9991 12.8569V15.9999C15.9992 16.2249 15.914 16.4416 15.7605 16.6062C15.6071 16.7709 15.397 16.8712 15.1725 16.8869C14.7841 16.9136 14.4668 16.9278 14.2214 16.9278C6.36676 16.9278 0 10.5611 0 2.70639C0 2.46107 0.0133326 2.14375 0.0408866 1.75533C0.056639 1.53085 0.156952 1.3207 0.321585 1.16728C0.486218 1.01387 0.702915 0.928609 0.927949 0.928711H4.07089C4.18114 0.9286 4.28749 0.969472 4.36929 1.04339C4.4511 1.11731 4.5025 1.21899 4.51353 1.32869C4.53397 1.53312 4.55264 1.69578 4.57041 1.81933C4.74706 3.05208 5.10905 4.25104 5.64413 5.37558C5.72857 5.55334 5.67346 5.76578 5.51347 5.87955L3.59536 7.25014C4.76814 9.98283 6.94588 12.1606 9.67857 13.3334L11.0474 11.4188C11.1033 11.3406 11.185 11.2845 11.278 11.2603C11.3711 11.2361 11.4697 11.2453 11.5567 11.2864C12.6811 11.8205 13.8797 12.1816 15.1121 12.3574C15.2356 12.3752 15.3983 12.3939 15.6009 12.4143C15.7105 12.4255 15.8119 12.477 15.8857 12.5588C15.9594 12.6406 15.9992 12.7468 15.9991 12.8569Z" fill="white"/>
</svg>
